<svg id="Layer_1" data-name="Layer 1" xmlns="http://www.w3.org/2000/svg" viewBox="0 0 150 150"><defs><style>.cls-1{fill:#fff;}.cls-2{opacity:0.5;}.cls-3{fill:#a6ce39;}</style></defs><g id="Group_373" data-name="Group 373"><path class="cls-1" d="M28.25,36.26l-.73,24a73.26,73.26,0,0,0,20.09,53.68C59,126,70.75,131,73.1,131.32c2.41-.21,14.46-4.48,26.51-15.79A73.22,73.22,0,0,0,122.9,63.18v-.09h0l.07-1.91.66-22A230.71,230.71,0,0,1,76.56,17.39,222.66,222.66,0,0,1,28.25,36.26Z"/><g id="Group_370" data-name="Group 370" class="cls-2"><g id="Group_369" data-name="Group 369"><g id="Group_367" data-name="Group 367"><g id="Path_1159" data-name="Path 1159"><path class="cls-3" d="M36,68.32a.74.74,0,0,1-.23-.54V47.7a.75.75,0,0,1,.23-.57.83.83,0,0,1,.54-.21h4.34a.77.77,0,0,1,.56.21.87.87,0,0,1,.22.57V63.76h9.29a.8.8,0,0,1,.8.8v3.28a.67.67,0,0,1-.23.56.76.76,0,0,1-.57.22H36.55A.75.75,0,0,1,36,68.32Z"/></g><g id="Path_1160" data-name="Path 1160"><path class="cls-3" d="M54.9,66.68a8.18,8.18,0,0,1-2.69-6.24V54.77a7.76,7.76,0,0,1,2.71-6.05,10.56,10.56,0,0,1,7-2.15,13,13,0,0,1,5.19,1A8.36,8.36,0,0,1,70.53,50a5.29,5.29,0,0,1,1.22,3.08.63.63,0,0,1-.2.48.62.62,0,0,1-.48.2H66.25a.8.8,0,0,1-.48-.1,1.22,1.22,0,0,1-.32-.32,3.62,3.62,0,0,0-1.19-1.49A3.77,3.77,0,0,0,62,51.22c-2.41,0-3.63,1.24-3.71,3.71v5.36c.08,2.62,1.33,3.94,3.77,3.94a4.29,4.29,0,0,0,2.83-.86,3.42,3.42,0,0,0,1-2.73v-.55H63.14a.82.82,0,0,1-.58-.23.85.85,0,0,1-.23-.58V56.87a.8.8,0,0,1,.81-.8H71a.77.77,0,0,1,.57.23.75.75,0,0,1,.23.57v3.59A8.23,8.23,0,0,1,70.58,65a7.82,7.82,0,0,1-3.45,2.91,12.77,12.77,0,0,1-5.21,1A10.5,10.5,0,0,1,54.9,66.68Z"/></g><g id="Path_1161" data-name="Path 1161"><path class="cls-3" d="M74.24,68.32a.79.79,0,0,1-.24-.54V47.7a.81.81,0,0,1,.22-.58.8.8,0,0,1,.56-.24h8.76a9.85,9.85,0,0,1,6.32,1.84,6.38,6.38,0,0,1,2.29,5.35,6.23,6.23,0,0,1-2.29,5.28,10.16,10.16,0,0,1-6.32,1.75H80v6.69a.83.83,0,0,1-.21.54.75.75,0,0,1-.56.23H74.78A.75.75,0,0,1,74.24,68.32Zm9.15-11.66a2.87,2.87,0,0,0,2-.66,2.56,2.56,0,0,0,.72-2,2.74,2.74,0,0,0-.67-2,2.61,2.61,0,0,0-2-.76H79.92v5.32Z"/></g><g id="Path_1162" data-name="Path 1162"><path class="cls-3" d="M94,68.32a.78.78,0,0,1-.23-.54V47.7a.8.8,0,0,1,.21-.58.82.82,0,0,1,.57-.24h8.13c3.06,0,5.43.73,7.13,2.19a8.19,8.19,0,0,1,2.66,6.26V60.1q-.3,8.48-9.64,8.48H94.57A.78.78,0,0,1,94,68.32Zm8.68-4.41a4,4,0,0,0,2.89-.93,4.33,4.33,0,0,0,1-3c0-.6.06-1.37.06-2.32s0-1.72-.06-2.3a4,4,0,0,0-1.07-2.92,4.14,4.14,0,0,0-3-.94H99.61V63.91Z"/></g></g><g id="Group_368" data-name="Group 368"><g id="Path_1163" data-name="Path 1163"><path class="cls-3" d="M71.12,99.17a.66.66,0,0,1-.19-.53v-1.8a.69.69,0,0,1,.66-.73h.87a1.93,1.93,0,0,0,1.72-.65,3.54,3.54,0,0,0,.44-1.94v-15a.7.7,0,0,1,.21-.53.72.72,0,0,1,.52-.2H78a.69.69,0,0,1,.73.65V93.62a5.81,5.81,0,0,1-1.49,4.24,6,6,0,0,1-4.42,1.51h-1.2A.73.73,0,0,1,71.12,99.17ZM74.67,75a.73.73,0,0,1-.22-.52V72.2a.75.75,0,0,1,.22-.53.63.63,0,0,1,.51-.22h2.95a.67.67,0,0,1,.52.21.69.69,0,0,1,.21.54v2.23a.66.66,0,0,1-.21.51.71.71,0,0,1-.52.22H75.18a.7.7,0,0,1-.51-.22Z"/></g><g id="Path_1164" data-name="Path 1164"><path class="cls-3" d="M82.43,92.06a7.3,7.3,0,0,1-1.61-5V78.49A.74.74,0,0,1,81,78a.76.76,0,0,1,.52-.19h2.74a.72.72,0,0,1,.52.21.73.73,0,0,1,.21.52v8.37c0,2.49,1.09,3.75,3.22,3.75a3.27,3.27,0,0,0,2.5-1,3.87,3.87,0,0,0,.94-2.74V78.49a.73.73,0,0,1,.2-.54.78.78,0,0,1,.53-.19h2.7a.68.68,0,0,1,.73.63.17.17,0,0,1,0,.1V92.86a.66.66,0,0,1-.2.51.73.73,0,0,1-.53.22H92.62a.74.74,0,0,1-.52-.22.71.71,0,0,1-.21-.51V91.61a5.87,5.87,0,0,1-5,2.28A5.55,5.55,0,0,1,82.43,92.06Z"/></g><g id="Path_1165" data-name="Path 1165"><path class="cls-3" d="M100.25,93.19A6.13,6.13,0,0,1,98,91.59,2.74,2.74,0,0,1,97.21,90a.64.64,0,0,1,.2-.49.67.67,0,0,1,.47-.18h2.49a.54.54,0,0,1,.43.24c.11.08.33.28.68.58a4.06,4.06,0,0,0,2.73,1,3.66,3.66,0,0,0,2-.47,1.5,1.5,0,0,0,.81-1.35,1.45,1.45,0,0,0-.35-1,3.23,3.23,0,0,0-1.25-.7,25.42,25.42,0,0,0-2.69-.72,8,8,0,0,1-3.82-1.67,3.85,3.85,0,0,1-1.24-3,4.13,4.13,0,0,1,.73-2.3,5.13,5.13,0,0,1,2.18-1.76,7.94,7.94,0,0,1,3.46-.69,8.81,8.81,0,0,1,3.55.65,6.2,6.2,0,0,1,2.27,1.61,2.62,2.62,0,0,1,.8,1.61.65.65,0,0,1-.2.47A.58.58,0,0,1,110,82h-2.29a.57.57,0,0,1-.52-.24c-.13-.09-.37-.29-.68-.56a3.92,3.92,0,0,0-1-.65,3.53,3.53,0,0,0-1.4-.24,2.7,2.7,0,0,0-1.74.49,1.63,1.63,0,0,0-.61,1.28,1.53,1.53,0,0,0,.29.9,2.62,2.62,0,0,0,1.18.69,18.3,18.3,0,0,0,2.65.65q5.48,1.08,5.48,4.82a4.18,4.18,0,0,1-1.88,3.51A8.88,8.88,0,0,1,104.18,94,9.49,9.49,0,0,1,100.25,93.19Z"/></g></g></g></g><path class="cls-3" d="M72.56,134.78a2.73,2.73,0,0,1-.41,0c-3-.44-15.38-5.77-27.14-18.24A76.48,76.48,0,0,1,24.17,60.78l.73-24A2.81,2.81,0,0,1,27,34.18,219.68,219.68,0,0,0,74.7,15.55a2.79,2.79,0,0,1,2.78.08A228.31,228.31,0,0,0,124,37.19a2.8,2.8,0,0,1,1.92,2.75l-.73,23.89A76.52,76.52,0,0,1,101,118.23c-12.47,11.71-25.2,16.28-28.18,16.54Zm-42.1-95.7L29.79,61A70.82,70.82,0,0,0,49.1,112.65C59.79,124,70.41,128.46,72.64,129.11c2.28-.51,13.14-4.32,24.5-15a70.87,70.87,0,0,0,22.41-50.35v-.14l.06-1.91.61-19.88A233.61,233.61,0,0,1,75.93,21.26,226.1,226.1,0,0,1,30.46,39.08Z"/><g id="Group_370-2" data-name="Group 370"><g id="Group_369-2" data-name="Group 369"><g id="Group_367-2" data-name="Group 367"><g id="Path_1159-2" data-name="Path 1159"><path class="cls-3" d="M36.85,67.46a.73.73,0,0,1-.23-.54V46.84a.75.75,0,0,1,.23-.57.83.83,0,0,1,.54-.21h4.34a.77.77,0,0,1,.56.21.87.87,0,0,1,.22.57V62.9H51.8a.8.8,0,0,1,.8.81V67a.72.72,0,0,1-.23.57.79.79,0,0,1-.57.21H37.41A.74.74,0,0,1,36.85,67.46Z"/></g><g id="Path_1160-2" data-name="Path 1160"><path class="cls-3" d="M55.76,65.82a8.18,8.18,0,0,1-2.69-6.24V53.91a7.71,7.71,0,0,1,2.71-6,10.51,10.51,0,0,1,7-2.16,13,13,0,0,1,5.19,1,8.46,8.46,0,0,1,3.41,2.46,5.36,5.36,0,0,1,1.22,3.08.62.62,0,0,1-.2.48.59.59,0,0,1-.48.2H67.11a.8.8,0,0,1-.48-.1,1.22,1.22,0,0,1-.32-.32A3.62,3.62,0,0,0,65.12,51a3.77,3.77,0,0,0-2.31-.62c-2.41,0-3.64,1.24-3.72,3.71v5.36q.12,3.95,3.78,3.94a4.3,4.3,0,0,0,2.83-.86,3.38,3.38,0,0,0,1-2.72v-.56H64a.81.81,0,0,1-.57-.23.79.79,0,0,1-.23-.58V56a.8.8,0,0,1,.8-.8h7.87a.81.81,0,0,1,.57.23.77.77,0,0,1,.23.57V59.6a8.29,8.29,0,0,1-1.22,4.52A7.86,7.86,0,0,1,68,67a12.61,12.61,0,0,1-5.21,1A10.45,10.45,0,0,1,55.76,65.82Z"/></g><g id="Path_1161-2" data-name="Path 1161"><path class="cls-3" d="M75.09,67.46a.83.83,0,0,1-.23-.54V46.84a.77.77,0,0,1,.22-.58.79.79,0,0,1,.56-.23H84.4a9.92,9.92,0,0,1,6.32,1.83A6.45,6.45,0,0,1,93,53.21a6.24,6.24,0,0,1-2.29,5.28,10.16,10.16,0,0,1-6.32,1.75H80.87v6.69a.79.79,0,0,1-.22.54.76.76,0,0,1-.55.24H75.64A.83.83,0,0,1,75.09,67.46ZM84.24,55.8a2.79,2.79,0,0,0,2-.66,2.54,2.54,0,0,0,.73-2,2.83,2.83,0,0,0-.67-2,2.62,2.62,0,0,0-2.06-.76H80.77v5.33Z"/></g><g id="Path_1162-2" data-name="Path 1162"><path class="cls-3" d="M94.88,67.46a.74.74,0,0,1-.23-.54V46.84a.76.76,0,0,1,.78-.81h8.13c3.06,0,5.43.72,7.13,2.18a8.22,8.22,0,0,1,2.66,6.27v4.76q-.3,8.48-9.64,8.48H95.43A.78.78,0,0,1,94.88,67.46Zm8.68-4.41a4,4,0,0,0,2.89-.93,4.27,4.27,0,0,0,1-3c0-.6.07-1.37.07-2.32a21.43,21.43,0,0,0-.07-2.3,4,4,0,0,0-1.06-2.92,4.18,4.18,0,0,0-3-.94h-2.94V63.05Z"/></g></g><g id="Group_368-2" data-name="Group 368"><g id="Path_1163-2" data-name="Path 1163"><path class="cls-3" d="M72,98.31a.65.65,0,0,1-.19-.53V96a.7.7,0,0,1,.66-.73h.87A1.93,1.93,0,0,0,75,94.6a3.54,3.54,0,0,0,.44-1.94v-15a.72.72,0,0,1,.21-.53.77.77,0,0,1,.52-.2h2.68a.7.7,0,0,1,.73.65V92.76A5.78,5.78,0,0,1,78.13,97a5.92,5.92,0,0,1-4.42,1.51h-1.2A.69.69,0,0,1,72,98.31ZM75.53,74.1a.7.7,0,0,1-.22-.51V71.34a.79.79,0,0,1,.22-.53.67.67,0,0,1,.51-.22H79a.67.67,0,0,1,.52.21.69.69,0,0,1,.21.54v2.23a.66.66,0,0,1-.21.51.67.67,0,0,1-.52.22H76a.7.7,0,0,1-.51-.22Z"/></g><g id="Path_1164-2" data-name="Path 1164"><path class="cls-3" d="M83.29,91.2a7.29,7.29,0,0,1-1.61-5V77.63a.7.7,0,0,1,.21-.53.77.77,0,0,1,.52-.2h2.74a.73.73,0,0,1,.52.21.78.78,0,0,1,.21.52V86c0,2.49,1.09,3.75,3.22,3.75a3.27,3.27,0,0,0,2.5-1A3.86,3.86,0,0,0,92.53,86V77.63a.7.7,0,0,1,.21-.53.79.79,0,0,1,.52-.2H96a.68.68,0,0,1,.73.63.17.17,0,0,1,0,.1V92a.65.65,0,0,1-.2.51.66.66,0,0,1-.53.22H93.48a.74.74,0,0,1-.52-.22.69.69,0,0,1-.21-.51V90.75a5.87,5.87,0,0,1-5,2.28A5.55,5.55,0,0,1,83.29,91.2Z"/></g><g id="Path_1165-2" data-name="Path 1165"><path class="cls-3" d="M101.11,92.33a6.13,6.13,0,0,1-2.29-1.6,2.69,2.69,0,0,1-.75-1.61.62.62,0,0,1,.2-.49.66.66,0,0,1,.47-.18h2.49a.53.53,0,0,1,.43.25l.68.57a4.12,4.12,0,0,0,2.72,1,3.7,3.7,0,0,0,2-.48,1.49,1.49,0,0,0,.8-1.35,1.39,1.39,0,0,0-.34-1,3.36,3.36,0,0,0-1.25-.7,25.59,25.59,0,0,0-2.7-.72,7.94,7.94,0,0,1-3.81-1.67,3.82,3.82,0,0,1-1.24-3,4.13,4.13,0,0,1,.73-2.3,5.28,5.28,0,0,1,2.18-1.76,7.92,7.92,0,0,1,3.45-.69,8.86,8.86,0,0,1,3.56.65,6.28,6.28,0,0,1,2.27,1.61,2.7,2.7,0,0,1,.8,1.61.63.63,0,0,1-.2.47.59.59,0,0,1-.47.19h-2.28a.57.57,0,0,1-.52-.24,8,8,0,0,1-.68-.56,4.09,4.09,0,0,0-1-.65,3.72,3.72,0,0,0-1.4-.24,2.7,2.7,0,0,0-1.74.49,1.63,1.63,0,0,0-.61,1.28,1.53,1.53,0,0,0,.29.9,2.76,2.76,0,0,0,1.17.7,20.23,20.23,0,0,0,2.66.65c3.65.71,5.48,2.32,5.47,4.82a4.11,4.11,0,0,1-1.87,3.5A8.81,8.81,0,0,1,105,93.12,9.49,9.49,0,0,1,101.11,92.33Z"/></g></g></g></g><g id="Group_371" data-name="Group 371"><g id="Path_1166" data-name="Path 1166"><path class="cls-3" d="M67.17,92.45V104c0,7.69-6.63,13.95-14.78,13.95l-6.17,0c-8.15,0-14.78-6.25-14.78-14V92.42a4.14,4.14,0,0,1,2.2-3.64,17.3,17.3,0,0,1,3.29-9.34,15.07,15.07,0,0,1,24.78,0A17.41,17.41,0,0,1,65,88.78,4.16,4.16,0,0,1,67.17,92.45Z"/></g><path class="cls-1" d="M60.88,92.45V89.76a13.4,13.4,0,0,0-2.52-7.88A10.93,10.93,0,0,0,43.16,79a10.81,10.81,0,0,0-2.88,2.88,13.33,13.33,0,0,0-2.52,7.88v2.69H35.57V104c0,5.43,4.78,9.82,10.65,9.82h6.2c5.88,0,10.64-4.39,10.64-9.82V92.45Zm-19.06,0a32.36,32.36,0,0,1,.45-4.82,7,7,0,0,1,7-5.55h.14a7.12,7.12,0,0,1,7.06,5.63,30.19,30.19,0,0,1,.46,4.74Z"/></g><g id="Group_372" data-name="Group 372"><g id="Path_1168" data-name="Path 1168"><path class="cls-3" d="M47.62,108.13a1.52,1.52,0,0,1-1.16-.54l-3.21-3.75a1.53,1.53,0,1,1,2.21-2.13,1,1,0,0,1,.13.16l2,2.31,5.56-7.13a1.54,1.54,0,0,1,2.61,1.63,2.69,2.69,0,0,1-.2.27l-6.72,8.6a1.49,1.49,0,0,1-1.18.59Z"/></g></g></g></svg>