<?xml version="1.0" encoding="UTF-8" standalone="no"?>
<!DOCTYPE svg PUBLIC "-//W3C//DTD SVG 1.1//EN" "http://www.w3.org/Graphics/SVG/1.1/DTD/svg11.dtd">
<svg width="100%" height="100%" viewBox="0 0 67 79" version="1.1" xmlns="http://www.w3.org/2000/svg" xmlns:xlink="http://www.w3.org/1999/xlink" xml:space="preserve" xmlns:serif="http://www.serif.com/" style="fill-rule:evenodd;clip-rule:evenodd;stroke-miterlimit:10;">
    <g transform="matrix(1,0,0,1,-3792.31,-1015.15)">
        <g transform="matrix(1,0,0,1,1722,-2742.97)">
            <g>
                <g transform="matrix(1,0,0,1,2071.56,3765.57)">
                    <rect x="8.8" y="2.6" width="46.4" height="58.8" style="fill:rgb(0,174,239);fill-rule:nonzero;stroke:black;stroke-width:2px;"/>
                </g>
                <g transform="matrix(1,0,0,1,2071.56,3765.57)">
                    <path d="M51.9,10.9L51.9,21C51.9,22.9 50.4,24.4 48.5,24.4L37.5,24.4C35.6,24.4 34.1,22.9 34.1,21L34.1,10.9C34.1,9 35.6,7.5 37.5,7.5L48.4,7.5C50.4,7.5 51.9,9 51.9,10.9Z" style="fill:rgb(63,137,160);fill-rule:nonzero;stroke:black;stroke-width:2px;"/>
                </g>
                <g transform="matrix(1,0,0,1,2071.56,3765.57)">
                    <path d="M12.1,10.3L31.1,10.3M31.1,17L12.1,17M12.1,23.8L31.1,23.8" style="fill:none;fill-rule:nonzero;stroke:black;stroke-width:2px;stroke-linecap:round;stroke-linejoin:round;"/>
                </g>
                <g transform="matrix(1.66067,0,0,1.66067,2083.63,3788.59)">
                    <path d="M15.5,4L14.5,3L9.5,3L8.5,4L5,4L5,6L19,6L19,4L15.5,4ZM6,19C6,20.1 6.9,21 8,21L16,21C17.1,21 18,20.1 18,19L18,7L6,7L6,19ZM8,19L8,9L16,9L16,19L8,19Z" style="fill:rgb(247,148,30);fill-rule:nonzero;stroke:black;stroke-width:1.2px;stroke-linejoin:round;stroke-miterlimit:2;"/>
                </g>
            </g>
        </g>
    </g>
</svg>
