<?xml version="1.0" encoding="UTF-8" standalone="no"?>
<!DOCTYPE svg PUBLIC "-//W3C//DTD SVG 1.1//EN" "http://www.w3.org/Graphics/SVG/1.1/DTD/svg11.dtd">
<svg width="100%" height="100%" viewBox="0 0 67 79" version="1.1" xmlns="http://www.w3.org/2000/svg" xmlns:xlink="http://www.w3.org/1999/xlink" xml:space="preserve" xmlns:serif="http://www.serif.com/" style="fill-rule:evenodd;clip-rule:evenodd;stroke-miterlimit:10;">
    <g transform="matrix(1,0,0,1,-3740.31,-946.15)">
        <g transform="matrix(1,0,0,1,1701,-2762.97)">
            <g>
                <g transform="matrix(1,0,0,1,2040.56,3716.57)">
                    <rect x="8.8" y="2.6" width="46.4" height="58.8" style="fill:rgb(0,174,239);fill-rule:nonzero;stroke:black;stroke-width:2px;"/>
                </g>
                <g transform="matrix(1,0,0,1,2040.56,3716.57)">
                    <path d="M51.9,10.9L51.9,21C51.9,22.9 50.4,24.4 48.5,24.4L37.5,24.4C35.6,24.4 34.1,22.9 34.1,21L34.1,10.9C34.1,9 35.6,7.5 37.5,7.5L48.4,7.5C50.4,7.5 51.9,9 51.9,10.9Z" style="fill:rgb(63,137,160);fill-rule:nonzero;stroke:black;stroke-width:2px;"/>
                </g>
                <g transform="matrix(1,0,0,1,2040.56,3716.57)">
                    <path d="M12.1,10.3L31.1,10.3M31.1,17L12.1,17M12.1,23.8L31.1,23.8" style="fill:none;fill-rule:nonzero;stroke:black;stroke-width:2px;stroke-linecap:round;stroke-linejoin:round;"/>
                </g>
                <g transform="matrix(1,0,0,1,2040.56,3716.57)">
                    <path d="M48.4,42L40.9,50.1C39.9,51.2 38.1,50.5 38.1,49.1L38.1,46C26.6,41.3 16.3,51.2 14.7,57.9C16,46.1 25.1,36 38,36L38,32.9C38,31.5 39.8,30.8 40.8,31.9L48.3,40C49,40.6 49,41.5 48.4,42Z" style="fill:rgb(247,148,30);fill-rule:nonzero;stroke:black;stroke-width:2px;stroke-linecap:round;stroke-linejoin:round;"/>
                </g>
            </g>
        </g>
    </g>
</svg>
