<?xml version="1.0" encoding="utf-8"?>
<svg viewBox="0 0 67 79" style="fill-rule:evenodd;clip-rule:evenodd;stroke-miterlimit:10;" xmlns="http://www.w3.org/2000/svg">
  <g transform="matrix(1, 0, 0, 1, -3849.310195, -292.118022)">
    <g transform="matrix(1,0,0,1,3850.56,299.568)">
      <rect x="8.8" y="2.6" width="46.4" height="58.8" style="fill:rgb(0,174,239);fill-rule:nonzero;stroke:black;stroke-width:2px;"/>
    </g>
    <g transform="matrix(1,0,0,1,3850.56,299.568)">
      <path d="M51.9,10.9L51.9,21C51.9,22.9 50.4,24.4 48.5,24.4L37.5,24.4C35.6,24.4 34.1,22.9 34.1,21L34.1,10.9C34.1,9 35.6,7.5 37.5,7.5L48.4,7.5C50.4,7.5 51.9,9 51.9,10.9Z" style="fill:rgb(63,137,160);fill-rule:nonzero;stroke:black;stroke-width:2px;"/>
    </g>
    <g transform="matrix(1,0,0,1,3850.56,299.568)">
      <path d="M12.1,10.3L31.1,10.3M31.1,17L12.1,17M12.1,23.8L31.1,23.8" style="fill:none;fill-rule:nonzero;stroke:black;stroke-width:2px;stroke-linecap:round;stroke-linejoin:round;"/>
    </g>
    <path d="M 3881.25 353.779 C 3879.872 352.401 3879.872 350.333 3881.25 348.955 C 3882.628 347.577 3884.695 347.577 3886.073 348.955 L 3887.107 349.989 L 3890.38 346.371 C 3889.174 345.682 3888.14 345.682 3886.935 345.682 C 3885.729 345.51 3884.523 345.166 3884.523 344.132 C 3884.523 343.098 3885.901 343.443 3886.935 341.548 C 3886.935 341.548 3891.586 328.973 3881.939 328.973 C 3872.465 328.973 3877.116 341.548 3877.116 341.548 C 3878.149 343.271 3879.527 342.926 3879.527 344.132 C 3879.527 345.338 3878.321 345.338 3877.116 345.51 C 3875.221 345.682 3873.498 345.338 3871.775 348.439 C 3870.742 350.333 3870.225 356.535 3870.225 356.535 L 3884.006 356.535 L 3881.25 353.779 Z" style="fill: rgb(247, 148, 30); stroke: rgb(0, 0, 0);"/>
    <path d="M 3890.38 356.535 L 3893.997 356.535 C 3893.997 356.535 3893.825 354.985 3893.653 353.09 L 3890.38 356.535 Z" style="fill: rgb(247, 148, 30); stroke: rgb(0, 0, 0);"/>
    <path d="M 3887.279 356.535 C 3886.762 356.535 3886.418 356.363 3886.073 356.018 L 3882.628 352.573 C 3881.939 351.884 3881.939 350.85 3882.628 350.161 C 3883.317 349.472 3884.351 349.472 3885.04 350.161 L 3887.279 352.401 L 3892.964 346.199 C 3893.653 345.51 3894.686 345.51 3895.375 346.027 C 3896.064 346.716 3896.064 347.75 3895.548 348.439 L 3888.657 355.846 C 3888.14 356.363 3887.796 356.535 3887.279 356.535 C 3887.279 356.535 3887.279 356.535 3887.279 356.535 Z" style="fill: rgb(247, 148, 30); stroke: rgb(0, 0, 0);"/>
  </g>
</svg>