<svg version="1.2" baseProfile="tiny-ps" xmlns="http://www.w3.org/2000/svg" viewBox="0 0 100 100" width="100"
    height="100">
    <title>validacao_frente-svg</title>
    <style>
        tspan {
            white-space: pre
        }

        .shp0 {
            fill: #c65246
        }

        .shp1 {
            opacity: 0.302;
            fill: #ffffff
        }

        .shp2 {
            fill: #ffffff
        }

        .shp3 {
            fill: none;stroke: #c65246;stroke-width: 2
        }
    </style>
    <path style="fill: #c65246"
        d="M18.09 33.27L79.39 33.27C82.04 33.27 84.18 35.41 84.18 38.06L84.18 73.15C84.18 75.8 82.04 77.94 79.39 77.94L18.09 77.94C15.44 77.94 13.3 75.8 13.3 73.15L13.3 38.06C13.3 35.41 15.44 33.27 18.09 33.27Z" />
    <path style="opacity: 0.302; fill: #ffffff;"
        d="M19.54 41L41.4 41C41.65 41 41.85 41.2 41.85 41.45L41.85 67.5C41.85 67.75 41.65 67.95 41.4 67.95L19.54 67.95C19.29 67.95 19.09 67.75 19.09 67.5L19.09 41.45C19.09 41.2 19.29 41 19.54 41Z" />
    <path style="opacity: 0.302; fill: #ffffff;"
        d="M46.49 41L77.93 41C78.18 41 78.38 41.2 78.38 41.45L78.38 45.04C78.38 45.29 78.18 45.49 77.93 45.49L46.49 45.49C46.24 45.49 46.04 45.29 46.04 45.04L46.04 41.45C46.04 41.2 46.24 41 46.49 41Z" />
    <path style="opacity: 0.302; fill: #ffffff;"
        d="M46.49 48.56L77.93 48.56C78.18 48.56 78.38 48.76 78.38 49.01L78.38 52.6C78.38 52.85 78.18 53.05 77.93 53.05L46.49 53.05C46.24 53.05 46.04 52.85 46.04 52.6L46.04 49.01C46.04 48.76 46.24 48.56 46.49 48.56Z" />
    <path style="opacity: 0.302; fill: #ffffff;"
        d="M46.49 56.11L77.93 56.11C78.18 56.11 78.38 56.31 78.38 56.56L78.38 60.15C78.38 60.4 78.18 60.6 77.93 60.6L46.49 60.6C46.24 60.6 46.04 60.4 46.04 60.15L46.04 56.56C46.04 56.31 46.24 56.11 46.49 56.11Z" />
    <path style="fill: #ffffff"
        d="M30.28 54.78C27.74 54.78 25.69 52.73 25.69 50.19C25.69 47.65 27.74 45.6 30.28 45.6C32.82 45.6 34.87 47.65 34.87 50.19C34.87 52.73 32.82 54.78 30.28 54.78Z" />
    <path style="fill: #ffffff"
        d="M22.69 63.36C22.69 63.36 23.09 56.11 30.47 56.11C37.85 56.11 37.86 63.36 37.86 63.36L22.69 63.36Z" />
    <g style="opacity: 0.302">
        <path fill-rule="evenodd" style="fill: #ffffff"
            d="M48.4 65.38C48.4 66.47 48 67.08 47.28 67.08C46.56 67.08 46.23 66.49 46.22 65.43C46.21 64.37 46.69 63.75 47.34 63.75C47.99 63.75 48.4 64.36 48.4 65.38ZM47.31 66.74C47.71 66.74 47.97 66.22 47.97 65.4C47.97 64.58 47.76 64.09 47.31 64.09C46.86 64.09 46.66 64.56 46.66 65.43C46.66 66.27 46.91 66.74 47.31 66.74Z" />
        <path fill-rule="evenodd" style="fill: #ffffff"
            d="M50.94 65.38C50.94 66.47 50.53 67.08 49.82 67.08C49.11 67.08 48.82 66.49 48.76 65.43C48.7 64.37 49.22 63.75 49.88 63.75C50.54 63.75 50.94 64.36 50.94 65.38ZM49.85 66.74C50.25 66.74 50.5 66.22 50.5 65.4C50.5 64.58 50.3 64.09 49.85 64.09C49.4 64.09 49.19 64.56 49.19 65.43C49.19 66.27 49.45 66.74 49.85 66.74Z" />
        <path fill-rule="evenodd" style="fill: #ffffff"
            d="M53.48 65.38C53.48 66.47 53.07 67.08 52.36 67.08C51.65 67.08 51.3 66.49 51.29 65.43C51.28 64.37 51.76 63.75 52.41 63.75C53.06 63.75 53.48 64.36 53.48 65.38ZM52.38 66.74C52.77 66.74 53.04 66.22 53.04 65.4C53.04 64.58 52.84 64.09 52.39 64.09C51.94 64.09 51.73 64.56 51.73 65.43C51.73 66.27 51.99 66.74 52.38 66.74Z" />
        <path style="fill: #ffffff"
            d="M53.91 66.77C53.91 66.73 53.91 66.69 53.93 66.65C53.94 66.61 53.96 66.57 53.99 66.54C54.02 66.51 54.05 66.49 54.09 66.47C54.13 66.46 54.17 66.45 54.21 66.45C54.34 66.44 54.46 66.51 54.52 66.63C54.58 66.75 54.55 66.89 54.46 66.99C54.37 67.08 54.23 67.12 54.11 67.07C53.99 67.02 53.91 66.9 53.91 66.77Z" />
        <path fill-rule="evenodd" style="fill: #ffffff"
            d="M57 65.38C57 66.47 56.59 67.08 55.88 67.08C55.17 67.08 54.83 66.49 54.82 65.43C54.81 64.37 55.28 63.75 55.93 63.75C56.58 63.75 57 64.36 57 65.38ZM55.25 65.43C55.25 66.27 55.51 66.74 55.9 66.74C56.29 66.74 56.56 66.22 56.56 65.4C56.56 64.58 56.36 64.09 55.91 64.09C55.46 64.09 55.29 64.56 55.29 65.43L55.25 65.43Z" />
        <path fill-rule="evenodd" style="fill: #ffffff"
            d="M59.57 65.38C59.57 66.47 59.17 67.08 58.46 67.08C57.75 67.08 57.4 66.49 57.39 65.43C57.38 64.37 57.86 63.75 58.51 63.75C59.16 63.75 59.57 64.36 59.57 65.38ZM58.48 66.74C58.88 66.74 59.14 66.22 59.14 65.4C59.14 64.58 58.94 64.09 58.49 64.09C58.04 64.09 57.83 64.56 57.83 65.43C57.83 66.27 58.08 66.74 58.48 66.74Z" />
        <path fill-rule="evenodd" style="fill: #ffffff"
            d="M62.11 65.38C62.11 66.47 61.71 67.08 60.99 67.08C60.27 67.08 59.94 66.49 59.93 65.43C59.92 64.37 60.39 63.75 61.05 63.75C61.71 63.75 62.11 64.36 62.11 65.38ZM61.02 66.74C61.42 66.74 61.67 66.22 61.67 65.4C61.67 64.58 61.47 64.09 61.02 64.09C60.57 64.09 60.37 64.56 60.37 65.43C60.37 66.27 60.62 66.74 61.02 66.74Z" />
        <path style="fill: #ffffff"
            d="M62.55 66.77C62.55 66.73 62.55 66.69 62.56 66.65C62.58 66.61 62.6 66.58 62.62 66.55C62.65 66.52 62.68 66.49 62.72 66.47C62.76 66.46 62.8 66.45 62.84 66.45C62.91 66.46 62.98 66.5 63.03 66.56C63.08 66.62 63.1 66.69 63.1 66.77C63.1 66.84 63.08 66.91 63.03 66.97C62.98 67.03 62.91 67.07 62.84 67.08C62.8 67.08 62.76 67.07 62.73 67.05C62.69 67.04 62.66 67.01 62.63 66.99C62.6 66.96 62.58 66.92 62.57 66.89C62.56 66.85 62.55 66.81 62.55 66.77Z" />
        <path fill-rule="evenodd" style="fill: #ffffff"
            d="M65.67 65.38C65.67 66.47 65.27 67.08 64.55 67.08C63.83 67.08 63.55 66.49 63.49 65.43C63.43 64.37 63.96 63.75 64.61 63.75C65.26 63.75 65.67 64.36 65.67 65.38ZM64.58 66.74C64.98 66.74 65.24 66.22 65.24 65.4C65.24 64.58 65.03 64.09 64.58 64.09C64.13 64.09 63.93 64.56 63.93 65.43C63.93 66.27 64.18 66.74 64.58 66.74Z" />
        <path fill-rule="evenodd" style="fill: #ffffff"
            d="M68.21 65.38C68.21 66.47 67.8 67.08 67.09 67.08C66.38 67.08 66.09 66.49 66.03 65.43C65.97 64.37 66.49 63.75 67.14 63.75C67.79 63.75 68.21 64.36 68.21 65.38ZM67.12 66.74C67.52 66.74 67.77 66.22 67.77 65.4C67.77 64.58 67.57 64.09 67.12 64.09C66.67 64.09 66.46 64.56 66.46 65.43C66.46 66.27 66.72 66.74 67.12 66.74Z" />
        <path fill-rule="evenodd" style="fill: #ffffff"
            d="M70.75 65.38C70.75 66.47 70.34 67.08 69.63 67.08C68.92 67.08 68.57 66.49 68.56 65.43C68.55 64.37 69.03 63.75 69.68 63.75C70.33 63.75 70.75 64.36 70.75 65.38ZM69 65.43C69 66.27 69.26 66.74 69.65 66.74C70.04 66.74 70.31 66.22 70.31 65.4C70.31 64.58 70.11 64.09 69.66 64.09C69.21 64.09 69 64.56 69 65.43Z" />
        <path style="fill: #ffffff" d="M72.29 65.52L72.29 65.85L71.07 65.85L71.07 65.52L72.29 65.52Z" />
        <path fill-rule="evenodd" style="fill: #ffffff"
            d="M74.8 65.38C74.8 66.47 74.4 67.08 73.68 67.08C72.96 67.08 72.63 66.49 72.62 65.43C72.61 64.37 73.08 63.75 73.74 63.75C74.4 63.75 74.8 64.36 74.8 65.38ZM73.71 66.74C74.11 66.74 74.37 66.22 74.37 65.4C74.37 64.58 74.16 64.09 73.71 64.09C73.26 64.09 73.06 64.56 73.06 65.43C73.06 66.27 73.31 66.74 73.71 66.74Z" />
        <path fill-rule="evenodd" style="fill: #ffffff"
            d="M77.34 65.38C77.34 66.47 76.93 67.08 76.22 67.08C75.51 67.08 75.22 66.49 75.16 65.43C75.1 64.37 75.62 63.75 76.27 63.75C76.92 63.75 77.34 64.36 77.34 65.38ZM76.25 66.74C76.65 66.74 76.9 66.22 76.9 65.4C76.9 64.58 76.7 64.09 76.25 64.09C75.8 64.09 75.59 64.56 75.59 65.43C75.59 66.27 75.85 66.74 76.25 66.74Z" />
    </g>
    <path style="fill: none;stroke: #c65246;stroke-width: 2" d="M3.48 38.45L3.48 23.72L17.2 23.72" />
    <path style="fill: none;stroke: #c65246;stroke-width: 2" d="M81.47 24.23L96.2 24.23L96.2 37.94" />
    <path style="fill: none;stroke: #c65246;stroke-width: 2" d="M96.36 71.74L96.36 86.47L82.65 86.47" />
    <path style="fill: none;stroke: #c65246;stroke-width: 2" d="M18.37 85.96L3.64 85.96L3.64 72.25" />
</svg>