<svg id="Layer_1" data-name="Layer 1" xmlns="http://www.w3.org/2000/svg" viewBox="0 0 100 100"><rect x="13.301" y="33.267" width="70.875" height="44.67" rx="4.785" fill="#c65246"/><rect x="19.092" y="41" width="22.759" height="26.951" rx="0.45" fill="#fff" opacity="0.3"/><rect x="46.043" y="41" width="32.341" height="4.492" rx="0.45" fill="#fff" opacity="0.3"/><rect x="46.043" y="48.556" width="32.341" height="4.492" rx="0.45" fill="#fff" opacity="0.3"/><rect x="46.043" y="56.111" width="32.341" height="4.492" rx="0.45" fill="#fff" opacity="0.3"/><circle cx="30.276" cy="50.186" r="4.594" fill="#fff"/><path d="M22.688,63.36s.4-7.249,7.784-7.249S37.86,63.36,37.86,63.36Z" fill="#fff"/><g opacity="0.3"><path d="M48.4,65.381c0,1.093-.405,1.7-1.117,1.7-.628,0-1.054-.589-1.063-1.651,0-1.078.465-1.671,1.117-1.671C48.016,63.755,48.4,64.357,48.4,65.381Zm-1.745.05c0,.835.257,1.309.653,1.309.445,0,.657-.518.657-1.339,0-.791-.2-1.31-.653-1.31C46.933,64.091,46.656,64.556,46.656,65.431Z" fill="#fff"/><path d="M50.938,65.381c0,1.093-.405,1.7-1.117,1.7-.628,0-1.053-.589-1.063-1.651,0-1.078.465-1.671,1.117-1.671C50.553,63.755,50.938,64.357,50.938,65.381Zm-1.745.05c0,.835.257,1.309.653,1.309.445,0,.657-.518.657-1.339,0-.791-.2-1.31-.652-1.31C49.47,64.091,49.193,64.556,49.193,65.431Z" fill="#fff"/><path d="M53.476,65.381c0,1.093-.406,1.7-1.118,1.7-.628,0-1.053-.589-1.063-1.651,0-1.078.465-1.671,1.117-1.671C53.09,63.755,53.476,64.357,53.476,65.381Zm-1.746.05c0,.835.257,1.309.653,1.309.445,0,.657-.518.657-1.339,0-.791-.2-1.31-.652-1.31C52.007,64.091,51.73,64.556,51.73,65.431Z" fill="#fff"/><path d="M53.911,66.766a.292.292,0,0,1,.3-.312.312.312,0,0,1,0,.623A.292.292,0,0,1,53.911,66.766Z" fill="#fff"/><path d="M57.036,65.381c0,1.093-.405,1.7-1.117,1.7-.628,0-1.054-.589-1.064-1.651,0-1.078.465-1.671,1.118-1.671C56.65,63.755,57.036,64.357,57.036,65.381Zm-1.745.05c0,.835.257,1.309.652,1.309.446,0,.658-.518.658-1.339,0-.791-.2-1.31-.653-1.31C55.567,64.091,55.291,64.556,55.291,65.431Z" fill="#fff"/><path d="M59.573,65.381c0,1.093-.405,1.7-1.117,1.7-.628,0-1.054-.589-1.063-1.651,0-1.078.464-1.671,1.117-1.671C59.187,63.755,59.573,64.357,59.573,65.381Zm-1.745.05c0,.835.257,1.309.652,1.309.446,0,.658-.518.658-1.339,0-.791-.2-1.31-.653-1.31C58.1,64.091,57.828,64.556,57.828,65.431Z" fill="#fff"/><path d="M62.11,65.381c0,1.093-.405,1.7-1.117,1.7-.628,0-1.054-.589-1.063-1.651,0-1.078.465-1.671,1.117-1.671C61.725,63.755,62.11,64.357,62.11,65.381Zm-1.745.05c0,.835.257,1.309.653,1.309.445,0,.657-.518.657-1.339,0-.791-.2-1.31-.653-1.31C60.642,64.091,60.365,64.556,60.365,65.431Z" fill="#fff"/><path d="M62.546,66.766a.292.292,0,0,1,.3-.312.312.312,0,0,1-.005.623A.292.292,0,0,1,62.546,66.766Z" fill="#fff"/><path d="M65.671,65.381c0,1.093-.405,1.7-1.117,1.7-.628,0-1.054-.589-1.064-1.651,0-1.078.465-1.671,1.117-1.671C65.285,63.755,65.671,64.357,65.671,65.381Zm-1.745.05c0,.835.257,1.309.652,1.309.445,0,.657-.518.657-1.339,0-.791-.2-1.31-.652-1.31C64.2,64.091,63.926,64.556,63.926,65.431Z" fill="#fff"/><path d="M68.208,65.381c0,1.093-.405,1.7-1.117,1.7-.628,0-1.054-.589-1.064-1.651,0-1.078.465-1.671,1.118-1.671C67.822,63.755,68.208,64.357,68.208,65.381Zm-1.745.05c0,.835.257,1.309.652,1.309.446,0,.657-.518.657-1.339,0-.791-.2-1.31-.652-1.31C66.739,64.091,66.463,64.556,66.463,65.431Z" fill="#fff"/><path d="M70.745,65.381c0,1.093-.405,1.7-1.117,1.7-.628,0-1.054-.589-1.064-1.651,0-1.078.465-1.671,1.118-1.671C70.359,63.755,70.745,64.357,70.745,65.381ZM69,65.431c0,.835.257,1.309.652,1.309.446,0,.658-.518.658-1.339,0-.791-.2-1.31-.653-1.31C69.276,64.091,69,64.556,69,65.431Z" fill="#fff"/><path d="M72.293,65.524v.322H71.072v-.322Z" fill="#fff"/><path d="M74.8,65.381c0,1.093-.405,1.7-1.117,1.7-.628,0-1.054-.589-1.064-1.651,0-1.078.465-1.671,1.117-1.671C74.415,63.755,74.8,64.357,74.8,65.381Zm-1.745.05c0,.835.256,1.309.652,1.309.445,0,.657-.518.657-1.339,0-.791-.2-1.31-.652-1.31C73.332,64.091,73.056,64.556,73.056,65.431Z" fill="#fff"/><path d="M77.338,65.381c0,1.093-.4,1.7-1.117,1.7-.628,0-1.054-.589-1.064-1.651,0-1.078.465-1.671,1.117-1.671C76.952,63.755,77.338,64.357,77.338,65.381Zm-1.745.05c0,.835.257,1.309.652,1.309.445,0,.657-.518.657-1.339,0-.791-.2-1.31-.652-1.31C75.869,64.091,75.593,64.556,75.593,65.431Z" fill="#fff"/></g><polyline points="3.482 38.451 3.482 23.72 17.195 23.72" fill="none" stroke="#c65246" stroke-miterlimit="10" stroke-width="2"/><polyline points="81.471 24.229 96.202 24.229 96.202 37.941" fill="none" stroke="#c65246" stroke-miterlimit="10" stroke-width="2"/><polyline points="96.36 71.738 96.36 86.469 82.648 86.469" fill="none" stroke="#c65246" stroke-miterlimit="10" stroke-width="2"/><polyline points="18.371 85.96 3.64 85.96 3.64 72.248" fill="none" stroke="#c65246" stroke-miterlimit="10" stroke-width="2"/></svg>