<svg id="Layer_1" data-name="Layer 1" xmlns="http://www.w3.org/2000/svg" viewBox="0 0 100 100"><defs><style>.cls-1,.cls-2{fill:#e29a93;}.cls-1,.cls-3{opacity:0.2;}.cls-4{fill:#c65246;}.cls-5,.cls-6{fill:#fff;}.cls-5{opacity:0.3;}.cls-7{fill:none;stroke:#c65246;stroke-miterlimit:10;stroke-width:2px;}</style></defs><circle class="cls-1" cx="45.06" cy="35.86" r="17.23"/><path class="cls-1" d="M19.14,75.07s2.68-19.63,27.6-17.95S71,77.19,71,77.19s-12.38,7-25.93,7.36S19.14,75.07,19.14,75.07Z"/><circle class="cls-2" cx="42.97" cy="34.47" r="17.23"/><path class="cls-2" d="M17.05,73.67s2.68-19.62,27.59-18S68.9,75.79,68.9,75.79s-12.38,7-25.93,7.36S17.05,73.67,17.05,73.67Z"/><g class="cls-3"><rect class="cls-2" x="75.66" y="67.62" width="10.16" height="2.32" rx="1.03"/><rect class="cls-2" x="76.92" y="65.08" width="6.96" height="2.26" rx="1"/><rect class="cls-2" x="76.35" y="70.21" width="9.53" height="2.38" rx="1.06"/><rect class="cls-2" x="77.29" y="72.88" width="7.65" height="2.38" rx="1.06"/><path class="cls-2" d="M80.15,67.38h8a1.08,1.08,0,0,1,1.08,1.08v.62A3.88,3.88,0,0,1,85.37,73H83a3.88,3.88,0,0,1-3.88-3.88v-.62A1.08,1.08,0,0,1,80.15,67.38Z" transform="translate(13.99 154.33) rotate(-90)"/></g><rect class="cls-4" x="53.08" y="47.51" width="29.69" height="18.71" rx="4.79"/><rect class="cls-5" x="55.5" y="50.75" width="9.53" height="11.29" rx="0.45"/><rect class="cls-5" x="66.79" y="50.75" width="13.55" height="1.88" rx="0.45"/><rect class="cls-5" x="66.79" y="53.92" width="13.55" height="1.88" rx="0.45"/><rect class="cls-5" x="66.79" y="57.08" width="13.55" height="1.88" rx="0.45"/><circle class="cls-6" cx="60.19" cy="54.6" r="1.92"/><path class="cls-6" d="M57,60.12a3.2,3.2,0,0,1,3.26-3,3,3,0,0,1,3.1,3Z"/><rect class="cls-2" x="74.27" y="66.22" width="10.16" height="2.32" rx="1.03"/><rect class="cls-2" x="75.52" y="63.68" width="6.96" height="2.26" rx="1"/><rect class="cls-2" x="74.96" y="68.82" width="9.53" height="2.38" rx="1.06"/><rect class="cls-2" x="75.9" y="71.48" width="7.65" height="2.38" rx="1.06"/><path class="cls-2" d="M78.76,66h8a1.08,1.08,0,0,1,1.08,1.08v.62A3.88,3.88,0,0,1,84,71.57H81.56a3.88,3.88,0,0,1-3.88-3.88v-.62A1.08,1.08,0,0,1,78.76,66Z" transform="translate(13.99 151.54) rotate(-90)"/><polyline class="cls-7" points="7.06 26.52 7.06 11.79 20.77 11.79"/><polyline class="cls-7" points="78.05 12.3 92.78 12.3 92.78 26.01"/><polyline class="cls-7" points="92.94 74.81 92.94 89.54 79.23 89.54"/><polyline class="cls-7" points="21.95 89.03 7.22 89.03 7.22 75.32"/></svg>