<svg id="Layer_1" data-name="Layer 1" xmlns="http://www.w3.org/2000/svg" viewBox="0 0 100 100"><defs><style>.cls-1{fill:#c65246;}.cls-2,.cls-3{fill:#fff;}.cls-2,.cls-4{opacity:0.3;}.cls-5{fill:none;stroke:#c65246;stroke-miterlimit:10;stroke-width:2px;}</style></defs><rect class="cls-1" x="13.3" y="33.27" width="70.88" height="44.67" rx="4.79"/><rect class="cls-2" x="19.09" y="41" width="22.76" height="26.95" rx="0.45"/><rect class="cls-2" x="46.04" y="41" width="32.34" height="4.49" rx="0.45"/><rect class="cls-2" x="46.04" y="48.56" width="32.34" height="4.49" rx="0.45"/><rect class="cls-2" x="46.04" y="56.11" width="32.34" height="4.49" rx="0.45"/><circle class="cls-3" cx="30.28" cy="50.19" r="4.59"/><path class="cls-3" d="M22.69,63.36s.4-7.25,7.78-7.25,7.39,7.25,7.39,7.25Z"/><g class="cls-4"><path class="cls-3" d="M48.4,65.38c0,1.09-.4,1.7-1.12,1.7s-1.05-.59-1.06-1.65.47-1.68,1.12-1.68S48.4,64.36,48.4,65.38Zm-1.74.05c0,.84.25,1.31.65,1.31s.66-.52.66-1.34-.21-1.31-.66-1.31S46.66,64.56,46.66,65.43Z"/><path class="cls-3" d="M50.94,65.38c0,1.09-.41,1.7-1.12,1.7s-1-.59-1.06-1.65.46-1.68,1.12-1.68S50.94,64.36,50.94,65.38Zm-1.75.05c0,.84.26,1.31.66,1.31s.65-.52.65-1.34-.2-1.31-.65-1.31S49.19,64.56,49.19,65.43Z"/><path class="cls-3" d="M53.48,65.38c0,1.09-.41,1.7-1.12,1.7s-1.06-.59-1.07-1.65.47-1.68,1.12-1.68S53.48,64.36,53.48,65.38Zm-1.75.05c0,.84.26,1.31.65,1.31s.66-.52.66-1.34-.2-1.31-.65-1.31S51.73,64.56,51.73,65.43Z"/><path class="cls-3" d="M53.91,66.77a.3.3,0,0,1,.3-.32.32.32,0,1,1-.3.32Z"/><path class="cls-3" d="M57,65.38c0,1.09-.41,1.7-1.12,1.7s-1.05-.59-1.06-1.65.46-1.68,1.11-1.68S57,64.36,57,65.38Zm-1.75.05c0,.84.26,1.31.65,1.31s.66-.52.66-1.34-.2-1.31-.65-1.31S55.29,64.56,55.29,65.43Z"/><path class="cls-3" d="M59.57,65.38c0,1.09-.4,1.7-1.11,1.7s-1.06-.59-1.07-1.65.47-1.68,1.12-1.68S59.57,64.36,59.57,65.38Zm-1.74.05c0,.84.25,1.31.65,1.31s.66-.52.66-1.34-.2-1.31-.65-1.31S57.83,64.56,57.83,65.43Z"/><path class="cls-3" d="M62.11,65.38c0,1.09-.4,1.7-1.12,1.7s-1.05-.59-1.06-1.65.46-1.68,1.12-1.68S62.11,64.36,62.11,65.38Zm-1.74.05c0,.84.25,1.31.65,1.31s.65-.52.65-1.34-.2-1.31-.65-1.31S60.37,64.56,60.37,65.43Z"/><path class="cls-3" d="M62.55,66.77a.29.29,0,0,1,.29-.32.32.32,0,0,1,0,.63A.3.3,0,0,1,62.55,66.77Z"/><path class="cls-3" d="M65.67,65.38c0,1.09-.4,1.7-1.12,1.7s-1-.59-1.06-1.65.47-1.68,1.12-1.68S65.67,64.36,65.67,65.38Zm-1.74.05c0,.84.25,1.31.65,1.31s.66-.52.66-1.34-.21-1.31-.66-1.31S63.93,64.56,63.93,65.43Z"/><path class="cls-3" d="M68.21,65.38c0,1.09-.41,1.7-1.12,1.7s-1-.59-1.06-1.65.46-1.68,1.11-1.68S68.21,64.36,68.21,65.38Zm-1.75.05c0,.84.26,1.31.66,1.31s.65-.52.65-1.34-.2-1.31-.65-1.31S66.46,64.56,66.46,65.43Z"/><path class="cls-3" d="M70.75,65.38c0,1.09-.41,1.7-1.12,1.7s-1.06-.59-1.07-1.65.47-1.68,1.12-1.68S70.75,64.36,70.75,65.38ZM69,65.43c0,.84.26,1.31.65,1.31s.66-.52.66-1.34-.2-1.31-.65-1.31S69,64.56,69,65.43Z"/><path class="cls-3" d="M72.29,65.52v.33H71.07v-.33Z"/><path class="cls-3" d="M74.8,65.38c0,1.09-.4,1.7-1.12,1.7s-1.05-.59-1.06-1.65.46-1.68,1.12-1.68S74.8,64.36,74.8,65.38Zm-1.74.05c0,.84.25,1.31.65,1.31s.66-.52.66-1.34-.21-1.31-.66-1.31S73.06,64.56,73.06,65.43Z"/><path class="cls-3" d="M77.34,65.38c0,1.09-.41,1.7-1.12,1.7s-1-.59-1.06-1.65.46-1.68,1.11-1.68S77.34,64.36,77.34,65.38Zm-1.75.05c0,.84.26,1.31.66,1.31s.65-.52.65-1.34-.2-1.31-.65-1.31S75.59,64.56,75.59,65.43Z"/></g><polyline class="cls-5" points="3.48 38.45 3.48 23.72 17.2 23.72"/><polyline class="cls-5" points="81.47 24.23 96.2 24.23 96.2 37.94"/><polyline class="cls-5" points="96.36 71.74 96.36 86.47 82.65 86.47"/><polyline class="cls-5" points="18.37 85.96 3.64 85.96 3.64 72.25"/></svg>