<svg id="Layer_1" data-name="Layer 1" xmlns="http://www.w3.org/2000/svg" viewBox="0 0 100 100"><circle cx="45.064" cy="35.86" r="17.226" fill="#e29a93" opacity="0.2"/><path d="M19.14,75.068s2.676-19.624,27.6-17.951S70.986,77.186,70.986,77.186s-12.375,7.025-25.922,7.359S19.14,75.068,19.14,75.068Z" fill="#e29a93" opacity="0.2"/><circle cx="42.973" cy="34.466" r="17.226" fill="#e29a93"/><path d="M17.049,73.674s2.676-19.623,27.6-17.951S68.9,75.793,68.9,75.793s-12.374,7.024-25.922,7.358S17.049,73.674,17.049,73.674Z" fill="#e29a93"/><g opacity="0.2"><rect x="75.661" y="67.617" width="10.161" height="2.321" rx="1.032" fill="#e29a93"/><rect x="76.915" y="65.077" width="6.962" height="2.258" rx="1.004" fill="#e29a93"/><rect x="76.351" y="70.215" width="9.534" height="2.383" rx="1.06" fill="#e29a93"/><rect x="77.292" y="72.875" width="7.652" height="2.383" rx="1.06" fill="#e29a93"/><path d="M80.153,67.377h8.014A1.084,1.084,0,0,1,89.25,68.46v.618a3.881,3.881,0,0,1-3.881,3.881H82.95a3.881,3.881,0,0,1-3.881-3.881V68.46A1.084,1.084,0,0,1,80.153,67.377Z" transform="translate(13.992 154.328) rotate(-90)" fill="#e29a93"/></g><rect x="53.078" y="47.513" width="29.688" height="18.711" rx="4.785" fill="#c65246"/><rect x="55.504" y="50.752" width="9.533" height="11.289" rx="0.45" fill="#fff" opacity="0.3"/><rect x="66.793" y="50.752" width="13.547" height="1.882" rx="0.45" fill="#fff" opacity="0.3"/><rect x="66.793" y="53.917" width="13.547" height="1.882" rx="0.45" fill="#fff" opacity="0.3"/><rect x="66.793" y="57.081" width="13.547" height="1.882" rx="0.45" fill="#fff" opacity="0.3"/><circle cx="60.189" cy="54.599" r="1.924" fill="#fff"/><path d="M57.01,60.118a3.194,3.194,0,0,1,3.261-3.037,2.993,2.993,0,0,1,3.095,3.037Z" fill="#fff"/><rect x="74.267" y="66.224" width="10.161" height="2.321" rx="1.032" fill="#e29a93"/><rect x="75.522" y="63.684" width="6.962" height="2.258" rx="1.004" fill="#e29a93"/><rect x="74.957" y="68.821" width="9.534" height="2.383" rx="1.06" fill="#e29a93"/><rect x="75.898" y="71.481" width="7.652" height="2.383" rx="1.06" fill="#e29a93"/><path d="M78.759,65.983h8.014a1.084,1.084,0,0,1,1.084,1.084v.618a3.881,3.881,0,0,1-3.881,3.881H81.556a3.881,3.881,0,0,1-3.881-3.881v-.618A1.084,1.084,0,0,1,78.759,65.983Z" transform="translate(13.992 151.54) rotate(-90)" fill="#e29a93"/><polyline points="7.061 26.522 7.061 11.791 20.774 11.791" fill="none" stroke="#c65246" stroke-miterlimit="10" stroke-width="2"/><polyline points="78.05 12.3 92.781 12.3 92.781 26.012" fill="none" stroke="#c65246" stroke-miterlimit="10" stroke-width="2"/><polyline points="92.939 74.809 92.939 89.54 79.226 89.54" fill="none" stroke="#c65246" stroke-miterlimit="10" stroke-width="2"/><polyline points="21.95 89.031 7.219 89.031 7.219 75.319" fill="none" stroke="#c65246" stroke-miterlimit="10" stroke-width="2"/></svg>