<svg id="Layer_1" data-name="Layer 1" xmlns="http://www.w3.org/2000/svg" viewBox="0 0 500 500"><path d="M419.79,118.93A791.23,791.23,0,0,1,258.6,44.19a9.77,9.77,0,0,0-9.65-.28A761.41,761.41,0,0,1,83.6,108.49a9.77,9.77,0,0,0-7.28,9.14L73.79,200.7A264.85,264.85,0,0,0,99,325V310.37a14.37,14.37,0,0,1,3.21-9A253.86,253.86,0,0,1,85.42,198.9L88,115.69A769.93,769.93,0,0,0,255.42,50.28,799.09,799.09,0,0,0,418.6,125.94l-2.32,76.16-.22,6.63v.3A254,254,0,0,1,335.31,390.5c-41.77,39.21-83.54,54-91.89,54.75-7.19-1.05-39.73-14.6-74.28-46.34l-18.31-.07c39.28,39.69,79.43,56.84,89.28,58.29a11.3,11.3,0,0,0,1.42.1,7.87,7.87,0,0,0,.84,0c10.34-.89,54.47-16.75,97.7-57.33a265.2,265.2,0,0,0,83.85-188.59l2.53-82.8A9.75,9.75,0,0,0,419.79,118.93Z"/><path d="M106.61,297.78c.08-1.49.21-3,.4-4.47a244.82,244.82,0,0,1-13.74-91.89l2.32-75.94A782.11,782.11,0,0,0,253.21,63.71a810.42,810.42,0,0,0,153.54,71.38L404.66,204l-.23,6.63v.47a245.55,245.55,0,0,1-77.68,174.53c-39.39,37-77,50.17-84.92,51.94-6.43-1.87-33-12.91-63-39.14a55,55,0,0,1-7.19.49h-2.5c34.55,31.74,67.09,45.29,74.28,46.34,8.35-.72,50.12-15.54,91.89-54.75A254,254,0,0,0,416.06,209v-.3l.22-6.63,2.32-76.16A799.09,799.09,0,0,1,255.42,50.28,769.93,769.93,0,0,1,88,115.69L85.42,198.9A253.86,253.86,0,0,0,102.2,301.41,14.31,14.31,0,0,1,106.61,297.78Z"/><path d="M119.68,224.91h49.9a2.76,2.76,0,0,0,2-.75,2.45,2.45,0,0,0,.81-1.95V210.85a2.79,2.79,0,0,0-2.78-2.79H137.36V152.37a2.57,2.57,0,0,0-2.7-2.7h-15a2.83,2.83,0,0,0-1.87.75,2.61,2.61,0,0,0-.8,2V222a2.55,2.55,0,0,0,.8,1.89A2.63,2.63,0,0,0,119.68,224.91Z"/><path d="M183.3,218.17q8.8,7.61,24.34,7.66a43.7,43.7,0,0,0,18.05-3.48,27.26,27.26,0,0,0,12-10.08,28.8,28.8,0,0,0,4.23-15.65V184.17a2.61,2.61,0,0,0-.81-2,2.73,2.73,0,0,0-2-.8H211.85a2.78,2.78,0,0,0-2.79,2.78v8.35a2.72,2.72,0,0,0,2.79,2.82h9.55v1.92a11.76,11.76,0,0,1-3.65,9.44,14.76,14.76,0,0,1-9.8,3q-12.67,0-13.09-13.65V177.46c.28-8.58,4.54-12.86,12.89-12.86a12.91,12.91,0,0,1,8,2.14,12.38,12.38,0,0,1,4.13,5.15A3.91,3.91,0,0,0,221,173a3,3,0,0,0,1.67.37h16.71a2.2,2.2,0,0,0,1.67-.7,2.28,2.28,0,0,0,.69-1.67,18.54,18.54,0,0,0-4.23-10.67,29.26,29.26,0,0,0-11.83-8.54,45.25,45.25,0,0,0-18-3.32q-15.37,0-24.31,7.46a26.87,26.87,0,0,0-9.38,21v19.66A28.34,28.34,0,0,0,183.3,218.17Z"/><path d="M252.22,224.71h15.46a2.62,2.62,0,0,0,1.92-.8,2.79,2.79,0,0,0,.75-1.9V198.85h12.22q14,0,21.92-6.07t7.94-18.3a22.29,22.29,0,0,0-7.94-18.57q-8-6.36-21.92-6.35H252.22a2.76,2.76,0,0,0-1.95.81,2.79,2.79,0,0,0-.75,2V222a2.81,2.81,0,0,0,.81,1.89A2.76,2.76,0,0,0,252.22,224.71ZM270,164.93h12a9.17,9.17,0,0,1,7.12,2.64,9.68,9.68,0,0,1,2.32,6.77,8.77,8.77,0,0,1-2.51,6.82,9.88,9.88,0,0,1-6.93,2.29l-12-.06Z"/><path d="M320.81,224.77h28.71q32.39,0,33.41-29.41V178.85c-.28-9.44-3.42-16.71-9.22-21.72s-14.11-7.57-24.7-7.57h-28.2a2.67,2.67,0,0,0-2.7,2.81V222a2.75,2.75,0,0,0,.8,1.89A2.79,2.79,0,0,0,320.81,224.77Zm17.48-59.12h10.2a14.48,14.48,0,0,1,10.24,3.26,14,14,0,0,1,3.71,10.14c.22,2,.22,4.68.22,8s-.22,6-.22,8.05a14.91,14.91,0,0,1-3.43,10.3,13.63,13.63,0,0,1-10,3.2H338.29Z"/><path d="M263.83,234.71H253.61a2.26,2.26,0,0,0-1.78.78,2.63,2.63,0,0,0-.75,1.84v7.77a2.43,2.43,0,0,0,.75,1.78v-.06a2.46,2.46,0,0,0,1.78.76h10.22a2.42,2.42,0,0,0,1.81-.76,2.38,2.38,0,0,0,.73-1.78v-7.71a2.54,2.54,0,0,0-.73-1.9A2.43,2.43,0,0,0,263.83,234.71Z"/><path d="M241.16,320.2a2.42,2.42,0,0,0-2.3,2.53V329a2.4,2.4,0,0,0,.66,1.84,2.52,2.52,0,0,0,1.84.69h4.18a20.58,20.58,0,0,0,15.31-5.23,20.08,20.08,0,0,0,5.16-14.7V258.84a2.39,2.39,0,0,0-2.54-2.24H254.2a2.48,2.48,0,0,0-1.81.69,2.35,2.35,0,0,0-.72,1.84v52.1a12.18,12.18,0,0,1-1.54,6.71,6.7,6.7,0,0,1-6,2.26h-3Z"/><path d="M310.78,259.13v29a13.43,13.43,0,0,1-3.23,9.49,11.3,11.3,0,0,1-8.69,3.48c-7.37,0-11.13-4.34-11.13-13v-29a2.61,2.61,0,0,0-.76-1.81,2.37,2.37,0,0,0-1.78-.72H275.7a2.56,2.56,0,0,0-1.81.67,2.46,2.46,0,0,0-.73,1.86v29.63a25.27,25.27,0,0,0,5.57,17.4A19.28,19.28,0,0,0,294,312.51a20.35,20.35,0,0,0,17.51-7.91v4.32a2.53,2.53,0,0,0,2.54,2.53h8.63a2.46,2.46,0,0,0,2.53-2.53V259.13a1.93,1.93,0,0,0,0-.34,2.36,2.36,0,0,0-2.53-2.19h-9.38a2.56,2.56,0,0,0-1.81.67A2.46,2.46,0,0,0,310.78,259.13Z"/><path d="M359.74,279.35a64.2,64.2,0,0,1-9.19-2.26,9.4,9.4,0,0,1-4.07-2.39,5,5,0,0,1-1-3.15,5.58,5.58,0,0,1,2.11-4.43,9.3,9.3,0,0,1,6-1.69,12.32,12.32,0,0,1,4.84.83,13.11,13.11,0,0,1,3.65,2.26c1.09.94,1.9,1.61,2.37,2a2.08,2.08,0,0,0,1.81.83h7.91a2.08,2.08,0,0,0,1.61-.67,2.3,2.3,0,0,0,.7-1.64,9.2,9.2,0,0,0-2.79-5.57,21.39,21.39,0,0,0-7.85-5.57,30.63,30.63,0,0,0-12.33-2.25,27.59,27.59,0,0,0-12,2.36,17.91,17.91,0,0,0-7.54,6.13,14.1,14.1,0,0,0-2.54,8,13.21,13.21,0,0,0,4.29,10.33,27.69,27.69,0,0,0,13.23,5.8,89,89,0,0,1,9.33,2.47,11.28,11.28,0,0,1,4.34,2.45,5,5,0,0,1,1.2,3.43,5.19,5.19,0,0,1-2.79,4.68,12.9,12.9,0,0,1-6.85,1.64,14.24,14.24,0,0,1-9.44-3.37c-1.22-1.06-2-1.73-2.36-2a1.83,1.83,0,0,0-1.48-.84h-8.66a2.26,2.26,0,0,0-1.62.61A2.22,2.22,0,0,0,330,299a9.47,9.47,0,0,0,2.59,5.57,21.24,21.24,0,0,0,8,5.57,32.87,32.87,0,0,0,13.62,2.73,30.7,30.7,0,0,0,18.1-4.62,14.38,14.38,0,0,0,6.49-12.14Q378.75,283.07,359.74,279.35Z"/><path d="M135.13,381.62c-12.56-5.2-21.4-16.7-21.78-30.14A266.22,266.22,0,0,1,99,325v25.44c0,26.68,23,48.38,51.23,48.38h.61c-1.59-1.61-3.19-3.25-4.78-4.93C142.27,389.93,138.64,385.82,135.13,381.62Z"/><path d="M185.7,294.05a24.64,24.64,0,0,0-24.48-19.49h-.47a24.32,24.32,0,0,0-24.23,19.21A117.06,117.06,0,0,0,135,310.48l52.33,0A105.7,105.7,0,0,0,185.7,294.05Z"/><path d="M120.9,301.18a46.42,46.42,0,0,1,8.74-27.35,37.95,37.95,0,0,1,62.69,0A46.41,46.41,0,0,1,201,301.18v9.3h7.58v40.1c0,18.79-16.52,34-36.9,34h-7.56c4.94,5,9.85,9.61,14.67,13.82,24.84-3.32,44-23.51,44-47.86V310.48a14.36,14.36,0,0,0-7.65-12.7,60.48,60.48,0,0,0-11.28-32.38,52.24,52.24,0,0,0-85.91,0,60.07,60.07,0,0,0-11,27.91q3.06,8.71,6.77,17.17h7.12Z"/><path d="M155,385c-.12-.13-.23-.26-.35-.38h-4.46a39.39,39.39,0,0,1-15.09-3c3.51,4.2,7.14,8.31,10.92,12.29,1.59,1.68,3.19,3.32,4.78,4.93l18.31.07C164.45,394.6,159.73,390,155,385Z"/><path d="M113.33,350.58V326.23a252.7,252.7,0,0,1-11.13-24.82,14.37,14.37,0,0,0-3.21,9V325a266.22,266.22,0,0,0,14.36,26.46C113.34,351.18,113.33,350.88,113.33,350.58Z"/><path d="M113.33,310.48h.45q-3.7-8.46-6.77-17.17c-.19,1.48-.32,3-.4,4.47a14.31,14.31,0,0,0-4.41,3.63,252.7,252.7,0,0,0,11.13,24.82Z"/><path d="M178.83,398.43c-4.82-4.21-9.73-8.81-14.67-13.82h-9.48c.12.12.23.25.35.38,4.7,5,9.42,9.61,14.11,13.92h2.5A55,55,0,0,0,178.83,398.43Z"/><path d="M183.25,332.09a5.35,5.35,0,1,0-9.08-5.65L154.9,351.16l-6.85-8a4.65,4.65,0,0,0-.45-.53,5.32,5.32,0,1,0-7.68,7.36l11.14,13a5.26,5.26,0,0,0,4,1.89l.05,0a5.21,5.21,0,0,0,4.09-2.06L182.52,333A5.37,5.37,0,0,0,183.25,332.09Z"/></svg>