<svg id="Layer_1" data-name="Layer 1" xmlns="http://www.w3.org/2000/svg" viewBox="0 0 500 500"><defs><style>.cls-1{fill:#fff;}.cls-2{opacity:0.5;}.cls-3{fill:#a6ce39;}</style></defs><g id="Group_373" data-name="Group 373"><path class="cls-1" d="M85.34,113.52l-2.58,84.55a258.11,258.11,0,0,0,70.74,189.1c40,42.44,81.52,60,89.81,61.23,8.49-.73,50.93-15.79,93.38-55.63a258.12,258.12,0,0,0,82.05-184.4v-.31h0l.23-6.73,2.35-77.39A812.44,812.44,0,0,1,255.51,47.06,783.12,783.12,0,0,1,85.34,113.52Z"/><g id="Group_370" data-name="Group 370" class="cls-2"><g id="Group_369" data-name="Group 369"><g id="Group_367" data-name="Group 367"><g id="Path_1159" data-name="Path 1159"><path class="cls-3" d="M112.59,226.48a2.64,2.64,0,0,1-.82-1.92V153.82a2.63,2.63,0,0,1,.82-2,2.88,2.88,0,0,1,1.9-.77h15.28a2.64,2.64,0,0,1,2.75,2.75v56.59h32.73a2.83,2.83,0,0,1,2.83,2.83v11.54a2.48,2.48,0,0,1-.82,2,2.82,2.82,0,0,1-2,.77h-50.7A2.68,2.68,0,0,1,112.59,226.48Z"/></g><g id="Path_1160" data-name="Path 1160"><path class="cls-3" d="M179.2,220.68a28.82,28.82,0,0,1-9.48-22v-20a27.38,27.38,0,0,1,9.54-21.31q9.08-7.6,24.7-7.58a46,46,0,0,1,18.28,3.36,29.67,29.67,0,0,1,12,8.69,18.93,18.93,0,0,1,4.3,10.84,2.33,2.33,0,0,1-.71,1.7,2.19,2.19,0,0,1-1.7.7h-17a3,3,0,0,1-1.69-.36,4.41,4.41,0,0,1-1.14-1.14,12.51,12.51,0,0,0-4.18-5.23,13.14,13.14,0,0,0-8.12-2.18c-8.49,0-12.82,4.36-13.1,13.07v18.88q.42,13.86,13.29,13.86a14.93,14.93,0,0,0,10-3,11.92,11.92,0,0,0,3.71-9.59v-2h-9.7a2.86,2.86,0,0,1-2-.82,2.82,2.82,0,0,1-.79-2v-8.49a2.83,2.83,0,0,1,2.83-2.83h27.7a2.86,2.86,0,0,1,2,.82,2.72,2.72,0,0,1,.82,2v12.65a29.31,29.31,0,0,1-4.3,15.9,27.71,27.71,0,0,1-12.17,10.24,44.23,44.23,0,0,1-18.34,3.54Q188.15,228.4,179.2,220.68Z"/></g><g id="Path_1161" data-name="Path 1161"><path class="cls-3" d="M247.31,226.48a2.83,2.83,0,0,1-.82-1.92V153.82a2.7,2.7,0,0,1,2.74-2.86h30.85q14.15,0,22.27,6.45a22.67,22.67,0,0,1,8.06,18.87q0,12.43-8.06,18.59T280.08,201H267.65v23.55a2.8,2.8,0,0,1-.76,1.92,2.67,2.67,0,0,1-1.95.82H249.23A2.86,2.86,0,0,1,247.31,226.48Zm32.23-41.08a10.06,10.06,0,0,0,7-2.32,8.92,8.92,0,0,0,2.55-6.94,9.74,9.74,0,0,0-2.35-6.87,9.26,9.26,0,0,0-7.24-2.69H267.32v18.76Z"/></g><g id="Path_1162" data-name="Path 1162"><path class="cls-3" d="M317,226.48a2.83,2.83,0,0,1-.82-1.92V153.82a2.72,2.72,0,0,1,2.75-2.86h28.66q16.13,0,25.1,7.7c5.88,5.09,9.08,12.47,9.36,22.07v16.78q-1,29.88-33.95,29.88H318.93A2.84,2.84,0,0,1,317,226.48Zm30.59-15.56a13.88,13.88,0,0,0,10.16-3.26,15.13,15.13,0,0,0,3.48-10.46c0-2.13.22-4.84.22-8.18s0-6.06-.22-8.09a14.14,14.14,0,0,0-3.77-10.3,14.67,14.67,0,0,0-10.41-3.32H336.7v43.61Z"/></g></g><g id="Group_368" data-name="Group 368"><g id="Path_1163" data-name="Path 1163"><path class="cls-3" d="M236.33,335.14a2.45,2.45,0,0,1-.68-1.87v-6.34a2.46,2.46,0,0,1,2.35-2.57h3.06a6.81,6.81,0,0,0,6.05-2.3,12.46,12.46,0,0,0,1.56-6.82V262.3a2.39,2.39,0,0,1,.73-1.86,2.5,2.5,0,0,1,1.84-.71h9.43a2.43,2.43,0,0,1,2.57,2.28,1.4,1.4,0,0,1,0,.29v53.28A20.39,20.39,0,0,1,258,330.52a21,21,0,0,1-15.57,5.32H238.2A2.58,2.58,0,0,1,236.33,335.14Zm12.51-85.29a2.46,2.46,0,0,1-.77-1.81v-7.89a2.68,2.68,0,0,1,.77-1.87,2.28,2.28,0,0,1,1.81-.79H261a2.43,2.43,0,0,1,1.84.73,2.57,2.57,0,0,1,.74,1.93V248a2.43,2.43,0,0,1-.74,1.81,2.48,2.48,0,0,1-1.84.76H250.65a2.47,2.47,0,0,1-1.81-.76Z"/></g><g id="Path_1164" data-name="Path 1164"><path class="cls-3" d="M276.17,310.09a25.73,25.73,0,0,1-5.66-17.68V262.3a2.53,2.53,0,0,1,.74-1.89,2.6,2.6,0,0,1,1.84-.68h9.65a2.46,2.46,0,0,1,1.81.73,2.64,2.64,0,0,1,.76,1.84v29.49c0,8.77,3.82,13.18,11.32,13.18a11.54,11.54,0,0,0,8.83-3.53,13.72,13.72,0,0,0,3.28-9.65V262.3a2.49,2.49,0,0,1,.74-1.89,2.59,2.59,0,0,1,1.83-.68h9.54a2.41,2.41,0,0,1,2.58,2.22V312.9a2.51,2.51,0,0,1-2.58,2.57h-8.77a2.5,2.5,0,0,1-1.84-.76,2.47,2.47,0,0,1-.74-1.81v-4.39a20.71,20.71,0,0,1-17.79,8A19.62,19.62,0,0,1,276.17,310.09Z"/></g><g id="Path_1165" data-name="Path 1165"><path class="cls-3" d="M339,314.08a21.52,21.52,0,0,1-8.09-5.65,9.59,9.59,0,0,1-2.63-5.66,2.23,2.23,0,0,1,.7-1.73,2.29,2.29,0,0,1,1.64-.62h8.8a1.8,1.8,0,0,1,1.5.85c.37.28,1.16,1,2.41,2a14.44,14.44,0,0,0,9.59,3.43,13.12,13.12,0,0,0,7-1.67,5.26,5.26,0,0,0,2.83-4.76,5,5,0,0,0-1.22-3.48,11.37,11.37,0,0,0-4.41-2.49,93.79,93.79,0,0,0-9.48-2.51,28.12,28.12,0,0,1-13.44-5.89,13.46,13.46,0,0,1-4.36-10.5,14.29,14.29,0,0,1,2.58-8.09,18.3,18.3,0,0,1,7.67-6.23,28.24,28.24,0,0,1,12.16-2.4A31.12,31.12,0,0,1,364.71,261a21.85,21.85,0,0,1,8,5.66,9.37,9.37,0,0,1,2.83,5.66,2.38,2.38,0,0,1-.71,1.67,2.15,2.15,0,0,1-1.64.68h-8a2.12,2.12,0,0,1-1.84-.85c-.48-.34-1.3-1-2.4-2a13.52,13.52,0,0,0-3.71-2.29,12.54,12.54,0,0,0-4.92-.85,9.42,9.42,0,0,0-6.11,1.72,5.65,5.65,0,0,0-2.15,4.5,5.17,5.17,0,0,0,1,3.2,9.52,9.52,0,0,0,4.14,2.43,66.53,66.53,0,0,0,9.33,2.3q19.33,3.78,19.3,17a14.56,14.56,0,0,1-6.59,12.34,31.19,31.19,0,0,1-18.39,4.7A33.42,33.42,0,0,1,339,314.08Z"/></g></g></g></g><path class="cls-3" d="M241.39,460.57a10,10,0,0,1-1.44-.1c-10.42-1.53-54.17-20.32-95.57-64.24A269.35,269.35,0,0,1,71,199.9l2.57-84.41a9.9,9.9,0,0,1,7.4-9.28,773.58,773.58,0,0,0,168-65.63,9.92,9.92,0,0,1,9.81.29,804.26,804.26,0,0,0,163.79,75.94,9.9,9.9,0,0,1,6.77,9.7l-2.57,84.13a269.46,269.46,0,0,1-85.21,191.64c-43.92,41.23-88.76,57.35-99.27,58.26C242,460.56,241.68,460.57,241.39,460.57ZM93.09,123.47l-2.35,77.17a249.58,249.58,0,0,0,68,182c37.65,39.93,75.07,55.69,82.94,58,8-1.8,46.26-15.2,86.29-52.78a249.52,249.52,0,0,0,78.93-177.35v-.14c0-.11,0-.22,0-.34l.22-6.73,2.13-70a823.75,823.75,0,0,1-156-72.54A794.26,794.26,0,0,1,93.09,123.47Z"/><g id="Group_370-2" data-name="Group 370"><g id="Group_369-2" data-name="Group 369"><g id="Group_367-2" data-name="Group 367"><g id="Path_1159-2" data-name="Path 1159"><path class="cls-3" d="M115.62,223.46a2.61,2.61,0,0,1-.82-1.93V150.79a2.66,2.66,0,0,1,.82-2,2.82,2.82,0,0,1,1.89-.76h15.28a2.62,2.62,0,0,1,2.75,2.74v56.6h32.74a2.83,2.83,0,0,1,2.83,2.82v11.55a2.51,2.51,0,0,1-.82,2,2.84,2.84,0,0,1-2,.76H117.57A2.65,2.65,0,0,1,115.62,223.46Z"/></g><g id="Path_1160-2" data-name="Path 1160"><path class="cls-3" d="M182.23,217.66a28.79,28.79,0,0,1-9.48-22v-20a27.32,27.32,0,0,1,9.53-21.3q9.09-7.62,24.71-7.59a45.94,45.94,0,0,1,18.27,3.37,29.67,29.67,0,0,1,12,8.69,18.83,18.83,0,0,1,4.3,10.83,2.31,2.31,0,0,1-.71,1.7,2.2,2.2,0,0,1-1.69.71h-17a3,3,0,0,1-1.7-.37,4.34,4.34,0,0,1-1.13-1.13,12.7,12.7,0,0,0-4.19-5.24,13.12,13.12,0,0,0-8.12-2.17c-8.49,0-12.82,4.35-13.1,13.07v18.87q.42,13.86,13.3,13.87a15,15,0,0,0,10-3,12,12,0,0,0,3.71-9.59v-2h-9.71a2.79,2.79,0,0,1-2-.82,2.84,2.84,0,0,1-.79-2v-8.49a2.83,2.83,0,0,1,2.83-2.83h27.7a2.8,2.8,0,0,1,2,.82,2.62,2.62,0,0,1,.82,2v12.65a29.23,29.23,0,0,1-4.3,15.9,27.71,27.71,0,0,1-12.17,10.24A44.37,44.37,0,0,1,207,225.44Q191.17,225.38,182.23,217.66Z"/></g><g id="Path_1161-2" data-name="Path 1161"><path class="cls-3" d="M250.33,223.46a2.85,2.85,0,0,1-.82-1.93V150.79a2.84,2.84,0,0,1,.77-2,2.78,2.78,0,0,1,2-.82H283.1q14.14,0,22.27,6.45a22.6,22.6,0,0,1,8.06,18.87q0,12.42-8.06,18.59T283.1,198H270.68v23.54a2.84,2.84,0,0,1-.77,1.93,2.67,2.67,0,0,1-2,.82h-15.7A2.86,2.86,0,0,1,250.33,223.46Zm32.23-41.09a10,10,0,0,0,7.05-2.32,8.92,8.92,0,0,0,2.55-6.93,9.87,9.87,0,0,0-2.35-6.88,9.31,9.31,0,0,0-7.25-2.68H270.34v18.76Z"/></g><g id="Path_1162-2" data-name="Path 1162"><path class="cls-3" d="M320,223.46a2.8,2.8,0,0,1-.82-1.93V150.79a2.7,2.7,0,0,1,2.74-2.85h28.66q16.14,0,25.1,7.69c5.89,5.1,9.08,12.48,9.37,22.07v16.78q-1.05,29.88-34,29.88H322A2.83,2.83,0,0,1,320,223.46Zm30.58-15.57a13.8,13.8,0,0,0,10.16-3.25,15.12,15.12,0,0,0,3.48-10.47c0-2.12.23-4.84.23-8.18a80.7,80.7,0,0,0-.23-8.09,14.15,14.15,0,0,0-3.76-10.3,14.69,14.69,0,0,0-10.41-3.31H339.72v43.6Z"/></g></g><g id="Group_368-2" data-name="Group 368"><g id="Path_1163-2" data-name="Path 1163"><path class="cls-3" d="M239.36,332.11a2.4,2.4,0,0,1-.68-1.87v-6.33a2.46,2.46,0,0,1,2.34-2.58h3.06a6.79,6.79,0,0,0,6.06-2.29,12.38,12.38,0,0,0,1.55-6.82V259.28a2.4,2.4,0,0,1,.74-1.87,2.55,2.55,0,0,1,1.84-.71h9.42a2.44,2.44,0,0,1,2.57,2.29,1.4,1.4,0,0,1,0,.29v53.28A20.4,20.4,0,0,1,261,327.5a21,21,0,0,1-15.56,5.32h-4.25A2.57,2.57,0,0,1,239.36,332.11Zm12.5-85.28a2.47,2.47,0,0,1-.76-1.81v-7.9a2.58,2.58,0,0,1,.76-1.86,2.29,2.29,0,0,1,1.81-.8h10.39a2.5,2.5,0,0,1,1.84.74,2.55,2.55,0,0,1,.73,1.92V245a2.44,2.44,0,0,1-.73,1.81,2.51,2.51,0,0,1-1.84.77H253.67a2.48,2.48,0,0,1-1.81-.77Z"/></g><g id="Path_1164-2" data-name="Path 1164"><path class="cls-3" d="M279.2,307.07a25.63,25.63,0,0,1-5.66-17.68V259.28a2.49,2.49,0,0,1,.73-1.9,2.64,2.64,0,0,1,1.84-.68h9.65a2.45,2.45,0,0,1,1.81.74,2.65,2.65,0,0,1,.77,1.84v29.48c0,8.78,3.82,13.19,11.31,13.19a11.48,11.48,0,0,0,8.83-3.54,13.65,13.65,0,0,0,3.28-9.65V259.28a2.54,2.54,0,0,1,.74-1.9,2.64,2.64,0,0,1,1.84-.68h9.53a2.42,2.42,0,0,1,2.58,2.23,2,2,0,0,1,0,.35v50.59a2.39,2.39,0,0,1-.71,1.81,2.43,2.43,0,0,1-1.87.77H315.1a2.51,2.51,0,0,1-1.84-.77,2.44,2.44,0,0,1-.73-1.81v-4.38a20.73,20.73,0,0,1-17.8,8A19.54,19.54,0,0,1,279.2,307.07Z"/></g><g id="Path_1165-2" data-name="Path 1165"><path class="cls-3" d="M342,311.06a21.7,21.7,0,0,1-8.09-5.66,9.59,9.59,0,0,1-2.63-5.66A2.2,2.2,0,0,1,332,298a2.31,2.31,0,0,1,1.64-.63h8.8a1.86,1.86,0,0,1,1.5.85c.37.29,1.16,1,2.4,2a14.45,14.45,0,0,0,9.59,3.42,13,13,0,0,0,7-1.67,5.28,5.28,0,0,0,2.83-4.75,5,5,0,0,0-1.22-3.48,11.41,11.41,0,0,0-4.42-2.49,91.08,91.08,0,0,0-9.47-2.52,28.16,28.16,0,0,1-13.44-5.88,13.44,13.44,0,0,1-4.36-10.5,14.33,14.33,0,0,1,2.57-8.09,18.29,18.29,0,0,1,7.67-6.23,28,28,0,0,1,12.17-2.4A31.07,31.07,0,0,1,367.73,258a21.57,21.57,0,0,1,8,5.66,9.32,9.32,0,0,1,2.83,5.66,2.36,2.36,0,0,1-.71,1.67,2.11,2.11,0,0,1-1.64.67h-8a2.12,2.12,0,0,1-1.84-.84c-.48-.34-1.3-1-2.41-2a13.71,13.71,0,0,0-3.7-2.29,12.78,12.78,0,0,0-4.93-.85,9.4,9.4,0,0,0-6.11,1.73,5.68,5.68,0,0,0-2.15,4.5,5.14,5.14,0,0,0,1,3.2,9.69,9.69,0,0,0,4.13,2.43,64.94,64.94,0,0,0,9.34,2.29q19.32,3.8,19.3,17a14.59,14.59,0,0,1-6.6,12.34,31.11,31.11,0,0,1-18.39,4.69A33.28,33.28,0,0,1,342,311.06Z"/></g></g></g></g><g id="Group_371" data-name="Group 371"><g id="Path_1166" data-name="Path 1166"><path class="cls-3" d="M222.43,311.46V352.2c0,27.08-23.37,49.12-52.06,49.12l-21.76-.08c-28.69,0-52.06-22.05-52.06-49.15V311.35a14.56,14.56,0,0,1,7.75-12.79,61.15,61.15,0,0,1,11.6-32.91,53.06,53.06,0,0,1,87.29,0,61.27,61.27,0,0,1,11.46,32.91A14.57,14.57,0,0,1,222.43,311.46Z"/></g><path class="cls-1" d="M200.25,311.46V302a47.1,47.1,0,0,0-8.86-27.79,38.54,38.54,0,0,0-63.69,0A47,47,0,0,0,118.82,302v9.45h-7.7V352.2c0,19.1,16.81,34.58,37.49,34.58h21.85c20.71,0,37.49-15.48,37.49-34.58V311.46Zm-67.14,0a116.41,116.41,0,0,1,1.58-17A24.7,24.7,0,0,1,159.31,275h.48a25,25,0,0,1,24.87,19.8,106.72,106.72,0,0,1,1.61,16.72Z"/></g><g id="Group_372" data-name="Group 372"><g id="Path_1168" data-name="Path 1168"><path class="cls-3" d="M153.56,366.72a5.35,5.35,0,0,1-4.1-1.93l-11.32-13.21A5.41,5.41,0,0,1,146,344.1a6,6,0,0,1,.45.55l7,8.15L173,327.67a5.43,5.43,0,1,1,9.22,5.74,5.57,5.57,0,0,1-.74.94l-23.65,30.3a5.36,5.36,0,0,1-4.16,2.1Z"/></g></g></g></svg>