<svg id="Layer_1" data-name="Layer 1" xmlns="http://www.w3.org/2000/svg" viewBox="0 0 100 100"><g id="Group_376" data-name="Group 376"><rect id="Rectangle_180" data-name="Rectangle 180" x="20.98" y="13.507" width="55.518" height="75.075" fill="#dbbaa7"/><rect id="Rectangle_181" data-name="Rectangle 181" x="19.087" y="11.614" width="55.518" height="75.075" fill="#f4dbcb"/><rect id="Rectangle_182" data-name="Rectangle 182" x="17.195" y="10.353" width="55.518" height="75.075" fill="#dbbaa7"/><rect id="Rectangle_183" data-name="Rectangle 183" x="14.671" y="7.198" width="55.518" height="75.075" fill="#f4dbcb"/><g id="Group_374" data-name="Group 374" opacity="0.3"><path id="Rectangle_184" data-name="Rectangle 184" d="M19.718,12.876H50a1.893,1.893,0,0,1,1.893,1.893h0A1.893,1.893,0,0,1,50,16.661H19.718a1.892,1.892,0,0,1-1.893-1.892h0A1.892,1.892,0,0,1,19.718,12.876Z" fill="#fcfcfc"/><path id="Rectangle_185" data-name="Rectangle 185" d="M35.174,65.87H65.457a1.577,1.577,0,0,1,1.577,1.577h0a1.577,1.577,0,0,1-1.577,1.577H35.174A1.577,1.577,0,0,1,33.6,67.447h0A1.577,1.577,0,0,1,35.174,65.87Z" fill="#fcfcfc"/><path id="Rectangle_186" data-name="Rectangle 186" d="M19.4,21.708H44.638a1.577,1.577,0,0,1,1.577,1.577h0a1.577,1.577,0,0,1-1.577,1.577H19.4a1.577,1.577,0,0,1-1.577-1.577h0A1.577,1.577,0,0,1,19.4,21.708Z" fill="#fcfcfc"/><path id="Rectangle_187" data-name="Rectangle 187" d="M49.684,21.708H65.457a1.577,1.577,0,0,1,1.577,1.577h0a1.577,1.577,0,0,1-1.577,1.577H49.684a1.577,1.577,0,0,1-1.577-1.577h0A1.577,1.577,0,0,1,49.684,21.708Z" fill="#fcfcfc"/><path id="Rectangle_188" data-name="Rectangle 188" d="M19.718,27.386H30.442a1.893,1.893,0,0,1,1.893,1.893h0a1.893,1.893,0,0,1-1.893,1.892H19.718a1.892,1.892,0,0,1-1.893-1.892h0A1.892,1.892,0,0,1,19.718,27.386Z" fill="#fcfcfc"/><path id="Rectangle_189" data-name="Rectangle 189" d="M35.49,27.386H65.141a1.893,1.893,0,0,1,1.893,1.893h0a1.893,1.893,0,0,1-1.893,1.892H35.49A1.892,1.892,0,0,1,33.6,29.279h0A1.892,1.892,0,0,1,35.49,27.386Z" fill="#fcfcfc"/><path id="Rectangle_190" data-name="Rectangle 190" d="M19.4,33.7H44.638a1.577,1.577,0,0,1,1.577,1.577h0a1.577,1.577,0,0,1-1.577,1.577H19.4a1.577,1.577,0,0,1-1.577-1.577h0A1.577,1.577,0,0,1,19.4,33.7Z" fill="#fcfcfc"/><path id="Rectangle_191" data-name="Rectangle 191" d="M49.684,33.7H65.457a1.577,1.577,0,0,1,1.577,1.577h0a1.577,1.577,0,0,1-1.577,1.577H49.684a1.577,1.577,0,0,1-1.577-1.577h0A1.577,1.577,0,0,1,49.684,33.7Z" fill="#fcfcfc"/><path id="Rectangle_192" data-name="Rectangle 192" d="M19.718,39.373H30.442a1.893,1.893,0,0,1,1.893,1.893h0a1.893,1.893,0,0,1-1.893,1.892H19.718a1.892,1.892,0,0,1-1.893-1.892h0A1.892,1.892,0,0,1,19.718,39.373Z" fill="#fcfcfc"/><path id="Rectangle_193" data-name="Rectangle 193" d="M35.49,39.373H65.141a1.893,1.893,0,0,1,1.893,1.893h0a1.893,1.893,0,0,1-1.893,1.892H35.49A1.892,1.892,0,0,1,33.6,41.266h0A1.892,1.892,0,0,1,35.49,39.373Z" fill="#fcfcfc"/><path id="Rectangle_194" data-name="Rectangle 194" d="M19.4,45.682H44.638a1.577,1.577,0,0,1,1.577,1.577h0a1.577,1.577,0,0,1-1.577,1.577H19.4a1.577,1.577,0,0,1-1.577-1.577h0A1.577,1.577,0,0,1,19.4,45.682Z" fill="#fcfcfc"/><path id="Rectangle_195" data-name="Rectangle 195" d="M49.684,45.682H65.457a1.577,1.577,0,0,1,1.577,1.577h0a1.577,1.577,0,0,1-1.577,1.577H49.684a1.577,1.577,0,0,1-1.577-1.577h0A1.577,1.577,0,0,1,49.684,45.682Z" fill="#fcfcfc"/><path id="Rectangle_196" data-name="Rectangle 196" d="M19.4,51.36H30.758a1.577,1.577,0,0,1,1.577,1.577h0a1.577,1.577,0,0,1-1.577,1.577H19.4a1.577,1.577,0,0,1-1.577-1.577h0A1.577,1.577,0,0,1,19.4,51.36Z" fill="#fcfcfc"/><path id="Rectangle_197" data-name="Rectangle 197" d="M35.174,51.36H65.457a1.577,1.577,0,0,1,1.577,1.577h0a1.577,1.577,0,0,1-1.577,1.577H35.174A1.577,1.577,0,0,1,33.6,52.937h0A1.577,1.577,0,0,1,35.174,51.36Z" fill="#fcfcfc"/></g><g id="Group_375" data-name="Group 375"><path id="Path_1169" data-name="Path 1169" d="M63.912,68.238a18.34,18.34,0,0,1-2.9,3.215l3.09,3.091,3.056-3.056Z" fill="#b5682d"/><path id="Path_1170" data-name="Path 1170" d="M83.907,84.5,69.027,69.624l-1.865,1.865-3.056,3.055L62.151,76.5,77.03,91.378A4.862,4.862,0,0,0,83.907,84.5Z" fill="#db8a4d"/><path id="Path_1171" data-name="Path 1171" d="M63.116,67.442l.8.8A18.277,18.277,0,0,0,62.9,45.873a18.262,18.262,0,0,1,.215,21.569Z" fill="#b5682d"/><path id="Path_1172" data-name="Path 1172" d="M48.254,75.083a18.23,18.23,0,0,1-13.923-6.438,18.278,18.278,0,0,0,26.686,2.809l-.816-.816A18.2,18.2,0,0,1,48.254,75.083Z" fill="#b5682d"/><path id="Path_1173" data-name="Path 1173" d="M63.912,68.238l-.8-.8a18.382,18.382,0,0,1-2.917,3.2l.816.816A18.387,18.387,0,0,0,63.912,68.238Z" fill="#b5682d"/><path id="Path_1174" data-name="Path 1174" d="M48.977,39.429A18.24,18.24,0,0,1,62.9,45.867,18.279,18.279,0,0,0,29.977,56.8v0A18.2,18.2,0,0,0,34.33,68.644,18.278,18.278,0,0,1,48.973,39.429Z" fill="#ce7e39"/><path id="Path_1175" data-name="Path 1175" d="M62.9,45.867A18.276,18.276,0,0,0,30.7,57.706h0A18.2,18.2,0,0,0,34.33,68.644,18.276,18.276,0,0,0,60.2,70.637a18.43,18.43,0,0,0,2.917-3.2,18.278,18.278,0,0,0-.22-21.575ZM48.254,71.3a14.5,14.5,0,0,1-14.5-14.5h0a14.5,14.5,0,0,1,14.5-14.5h0a14.5,14.5,0,0,1,14.5,14.5h0a14.5,14.5,0,0,1-14.5,14.5h0Z" fill="#ce7e39"/><circle id="Ellipse_76" data-name="Ellipse 76" cx="48.108" cy="57.037" r="14.51" fill="#fff" opacity="0.5" style="isolation:isolate"/></g></g></svg>