<svg id="Layer_1" data-name="Layer 1" xmlns="http://www.w3.org/2000/svg" viewBox="0 0 100 100"><g id="Group_402" data-name="Group 402"><path id="Path_1189" data-name="Path 1189" d="M54.317,58.9v28.78H8.27V58.9A8.635,8.635,0,0,1,16.9,50.269h28.78A8.635,8.635,0,0,1,54.317,58.9Z" fill="#b5682d"/><path id="Path_1190" data-name="Path 1190" d="M25.538,44.513H37.05V50.27a5.756,5.756,0,0,1-5.756,5.756h0a5.756,5.756,0,0,1-5.756-5.756h0Z" fill="#e2c9bc"/><path id="Path_1191" data-name="Path 1191" d="M51.439,53.147H83.1A5.757,5.757,0,0,1,88.852,58.9h0V81.927H45.683V58.9a5.757,5.757,0,0,1,5.756-5.757Z" fill="#f4dbcb"/><path id="Path_1192" data-name="Path 1192" d="M42.805,81.926H91.73V84.8a2.878,2.878,0,0,1-2.878,2.878H45.683A2.878,2.878,0,0,1,42.805,84.8Z" fill="#ce7e39"/><rect id="Rectangle_228" data-name="Rectangle 228" x="18.08" y="67.906" width="3.27" height="19.62" fill="#ce7e39"/><g id="Group_401" data-name="Group 401"><path id="Path_1193" data-name="Path 1193" d="M73.647,65.193H72.8V62.45a5.243,5.243,0,0,0-5.236-5.231h-.646a5.243,5.243,0,0,0-5.231,5.231v2.743h-.85a1.233,1.233,0,0,0-1.228,1.229v4.1a7.655,7.655,0,0,0,7.632,7.632h0a7.655,7.655,0,0,0,7.632-7.632v-4.1A1.233,1.233,0,0,0,73.647,65.193Zm-5.438,5.874v2.1a.965.965,0,0,1-.965.965h0a.965.965,0,0,1-.965-.965h0v-2.1a1.419,1.419,0,0,1,.965-2.46h0a1.417,1.417,0,0,1,.964,2.458Zm3.039-5.874H63.239V62.45a3.694,3.694,0,0,1,3.682-3.683h.646a3.694,3.694,0,0,1,3.682,3.683Z" fill="#ce7e39"/></g><path id="Path_1194" data-name="Path 1194" d="M47.122,28.146a15.829,15.829,0,0,0-15.829-15.83h0a15.83,15.83,0,0,0-15.828,15.83v.18h0V33A15.828,15.828,0,0,0,31.292,48.832h0A15.829,15.829,0,0,0,47.123,33h0V28.326h0C47.121,28.265,47.122,28.205,47.122,28.146Z" fill="#f4dbcb"/></g></svg>