<svg id="Layer_1" data-name="Layer 1" xmlns="http://www.w3.org/2000/svg" viewBox="0 0 100 100"><g id="Group_400" data-name="Group 400"><line id="Line_12" data-name="Line 12" x1="50.695" y1="44.581" x2="50.695" y2="59.5" fill="none" stroke="#f4dbcb" stroke-miterlimit="10"/><path id="Path_1188" data-name="Path 1188" d="M27.663,37.956v6.625H78.641V36.108" fill="none" stroke="#f4dbcb" stroke-miterlimit="10"/><rect id="Rectangle_225" data-name="Rectangle 225" x="69.405" y="7.078" width="18.468" height="33.243" rx="2" fill="#f4dbcb"/><path id="Path_1179" data-name="Path 1179" d="M69.438,32.952h18.48V38.5a1.848,1.848,0,0,1-1.848,1.848H71.285A1.849,1.849,0,0,1,69.437,38.5Z" fill="#ce7e39"/><path id="Path_1180" data-name="Path 1180" d="M78.678,38.035a1.371,1.371,0,0,1-1.386-1.358h0v-.028a1.439,1.439,0,0,1,.4-.984A2.089,2.089,0,0,1,77.9,35.5a1.015,1.015,0,0,1,.251-.125.869.869,0,0,1,.249-.083,1.411,1.411,0,0,1,1.261.374,1.459,1.459,0,0,1,.4.984A1.373,1.373,0,0,1,78.7,38.035h-.024Z" fill="#f4dbcb"/><rect id="Rectangle_226" data-name="Rectangle 226" x="12.082" y="7" width="33.243" height="25.856" rx="2" fill="#f4dbcb"/><path id="Path_1181" data-name="Path 1181" d="M12.082,28.33H45.348v3.408c0,.627-.828,1.136-1.848,1.136H13.931c-1.021,0-1.849-.509-1.849-1.136Z" fill="#ce7e39"/><path id="Path_1182" data-name="Path 1182" d="M25.019,29.178h7.392a2.045,2.045,0,0,1,1.849,2.2v4.389a2.045,2.045,0,0,1-1.849,2.2H25.019a2.043,2.043,0,0,1-1.848-2.2V31.373A2.043,2.043,0,0,1,25.019,29.178Z" fill="#ce7e39"/><path id="Path_1183" data-name="Path 1183" d="M19.474,36.57H37.955A1.744,1.744,0,0,1,39.8,38.187h0A1.745,1.745,0,0,1,37.955,39.8H19.474a1.743,1.743,0,0,1-1.848-1.617h0A1.743,1.743,0,0,1,19.474,36.57Z" fill="#f4dbcb"/><rect id="Rectangle_227" data-name="Rectangle 227" x="34.072" y="59.757" width="33.243" height="33.243" rx="2" fill="#f4dbcb"/><path id="Path_1184" data-name="Path 1184" d="M33.715,65.906V60.978c0-.68.827-1.232,1.848-1.232H65.132c1.021,0,1.849.552,1.849,1.232v4.928C66.981,65.828,33.715,65.906,33.715,65.906Z" fill="#ce7e39"/><path id="Path_1185" data-name="Path 1185" d="M38.335,63.673a.938.938,0,0,1-.35-.074,1.056,1.056,0,0,1-.306-.195.916.916,0,0,1-.194-1.007.933.933,0,0,1,.194-.3.922.922,0,0,1,.832-.25.545.545,0,0,1,.177.055.494.494,0,0,1,.157.083h0a.788.788,0,0,1,.24.227.961.961,0,0,1,.172.539.915.915,0,0,1-.267.656,1.089,1.089,0,0,1-.3.2A.951.951,0,0,1,38.335,63.673Z" fill="#f4dbcb"/><path id="Path_1186" data-name="Path 1186" d="M41.109,63.672a.914.914,0,0,1-.656-.268,1.061,1.061,0,0,1-.194-.305.762.762,0,0,1-.074-.351.907.907,0,0,1,.074-.352.932.932,0,0,1,.194-.3.967.967,0,0,1,1.25-.052.615.615,0,0,1,.114.114,1.07,1.07,0,0,1,.141.243.87.87,0,0,1,0,.7,1.08,1.08,0,0,1-.139.239.63.63,0,0,1-.121.121,1.074,1.074,0,0,1-.239.139A.918.918,0,0,1,41.109,63.672Z" fill="#f4dbcb"/><path id="Path_1187" data-name="Path 1187" d="M43.882,63.672a.939.939,0,0,1-.351-.074,1.047,1.047,0,0,1-.24-.14.593.593,0,0,1-.12-.12,1.069,1.069,0,0,1-.14-.24.87.87,0,0,1,0-.7.852.852,0,0,1,.194-.3,1.328,1.328,0,0,1,.137-.111.723.723,0,0,1,.167-.083.623.623,0,0,1,.166-.055.879.879,0,0,1,.536.055,1.1,1.1,0,0,1,.306.194.852.852,0,0,1,.194.3.878.878,0,0,1,0,.7,1.106,1.106,0,0,1-.194.3A.956.956,0,0,1,43.882,63.672Z" fill="#f4dbcb"/></g></svg>